%TF.GenerationSoftware,KiCad,Pcbnew,(6.0.0)*%
%TF.CreationDate,2021-12-30T12:50:52-06:00*%
%TF.ProjectId,ProspectBoards,50726f73-7065-4637-9442-6f617264732e,1.3*%
%TF.SameCoordinates,Original*%
%TF.FileFunction,Soldermask,Bot*%
%TF.FilePolarity,Negative*%
%FSLAX46Y46*%
G04 Gerber Fmt 4.6, Leading zero omitted, Abs format (unit mm)*
G04 Created by KiCad (PCBNEW (6.0.0)) date 2021-12-30 12:50:52*
%MOMM*%
%LPD*%
G01*
G04 APERTURE LIST*
G04 Aperture macros list*
%AMRoundRect*
0 Rectangle with rounded corners*
0 $1 Rounding radius*
0 $2 $3 $4 $5 $6 $7 $8 $9 X,Y pos of 4 corners*
0 Add a 4 corners polygon primitive as box body*
4,1,4,$2,$3,$4,$5,$6,$7,$8,$9,$2,$3,0*
0 Add four circle primitives for the rounded corners*
1,1,$1+$1,$2,$3*
1,1,$1+$1,$4,$5*
1,1,$1+$1,$6,$7*
1,1,$1+$1,$8,$9*
0 Add four rect primitives between the rounded corners*
20,1,$1+$1,$2,$3,$4,$5,0*
20,1,$1+$1,$4,$5,$6,$7,0*
20,1,$1+$1,$6,$7,$8,$9,0*
20,1,$1+$1,$8,$9,$2,$3,0*%
G04 Aperture macros list end*
%ADD10C,0.100000*%
%ADD11C,0.120000*%
%ADD12R,1.200000X1.700000*%
%ADD13R,1.700000X1.200000*%
%ADD14R,1.700000X1.700000*%
%ADD15O,1.700000X1.700000*%
%ADD16O,12.500000X5.500000*%
%ADD17RoundRect,0.070000X0.325000X0.875000X-0.325000X0.875000X-0.325000X-0.875000X0.325000X-0.875000X0*%
%ADD18O,0.800000X0.800000*%
%ADD19O,1.150000X1.800000*%
%ADD20O,1.450000X2.000000*%
%ADD21R,0.440000X1.300000*%
%ADD22RoundRect,0.243750X0.243750X0.456250X-0.243750X0.456250X-0.243750X-0.456250X0.243750X-0.456250X0*%
%ADD23C,1.727200*%
%ADD24O,1.727200X1.727200*%
%ADD25R,1.727200X1.727200*%
%ADD26C,2.390000*%
%ADD27C,3.450000*%
%ADD28R,7.460000X6.470000*%
%ADD29R,3.800000X2.200000*%
%ADD30R,1.500000X2.200000*%
%ADD31RoundRect,0.243750X0.456250X-0.243750X0.456250X0.243750X-0.456250X0.243750X-0.456250X-0.243750X0*%
%ADD32R,0.700000X0.500000*%
%ADD33R,1.100000X1.100000*%
%ADD34R,1.500000X0.900000*%
%ADD35R,0.900000X1.500000*%
%ADD36R,0.600000X1.200000*%
%ADD37R,1.000000X0.800000*%
%ADD38R,0.700000X1.500000*%
%ADD39C,0.900000*%
%ADD40RoundRect,0.250000X-0.375000X-0.625000X0.375000X-0.625000X0.375000X0.625000X-0.375000X0.625000X0*%
%ADD41RoundRect,0.250000X0.375000X0.625000X-0.375000X0.625000X-0.375000X-0.625000X0.375000X-0.625000X0*%
%ADD42RoundRect,0.250000X-0.625000X0.375000X-0.625000X-0.375000X0.625000X-0.375000X0.625000X0.375000X0*%
%ADD43C,2.020000*%
G04 APERTURE END LIST*
D10*
%TO.C,D4*%
X133143400Y-70501600D02*
X133143400Y-68596600D01*
X133143400Y-68596600D02*
X130755800Y-68571200D01*
X130755800Y-68571200D02*
X130755800Y-70501600D01*
X130755800Y-70501600D02*
X133143400Y-70501600D01*
G36*
X133143400Y-68596600D02*
G01*
X133143400Y-70501600D01*
X130755800Y-70501600D01*
X130755800Y-68571200D01*
X133143400Y-68596600D01*
G37*
X133143400Y-68596600D02*
X133143400Y-70501600D01*
X130755800Y-70501600D01*
X130755800Y-68571200D01*
X133143400Y-68596600D01*
X133143400Y-65853400D02*
X133143400Y-63999200D01*
X133143400Y-63999200D02*
X130806600Y-63999200D01*
X130806600Y-63999200D02*
X130806600Y-65853400D01*
X130806600Y-65853400D02*
X133143400Y-65853400D01*
G36*
X133143400Y-65853400D02*
G01*
X130806600Y-65853400D01*
X130806600Y-63999200D01*
X133143400Y-63999200D01*
X133143400Y-65853400D01*
G37*
X133143400Y-65853400D02*
X130806600Y-65853400D01*
X130806600Y-63999200D01*
X133143400Y-63999200D01*
X133143400Y-65853400D01*
D11*
X133052631Y-67225000D02*
G75*
G03*
X133052631Y-67225000I-1077631J0D01*
G01*
D10*
X130959000Y-67606000D02*
X131086000Y-67860000D01*
X131086000Y-67860000D02*
X131340000Y-68114000D01*
X131340000Y-68114000D02*
X131594000Y-68241000D01*
X131594000Y-68241000D02*
X131975000Y-68302630D01*
X131975000Y-68302630D02*
X132356000Y-68241000D01*
X132356000Y-68241000D02*
X132737000Y-67987000D01*
X132737000Y-67987000D02*
X132864000Y-67733000D01*
X132864000Y-67733000D02*
X133052630Y-67225000D01*
X133052630Y-67225000D02*
X132991000Y-66844000D01*
X132991000Y-66844000D02*
X132737000Y-66463000D01*
X132737000Y-66463000D02*
X132356000Y-66209000D01*
X132356000Y-66209000D02*
X131975000Y-66147370D01*
X131975000Y-66147370D02*
X131594000Y-66209000D01*
X131594000Y-66209000D02*
X131213000Y-66463000D01*
X131213000Y-66463000D02*
X130959000Y-66844000D01*
X130959000Y-66844000D02*
X130897370Y-67225000D01*
X130897370Y-67225000D02*
X130959000Y-67606000D01*
G36*
X132356000Y-66209000D02*
G01*
X132737000Y-66463000D01*
X132991000Y-66844000D01*
X133052630Y-67225000D01*
X132864000Y-67733000D01*
X132737000Y-67987000D01*
X132356000Y-68241000D01*
X131975000Y-68302630D01*
X131594000Y-68241000D01*
X131340000Y-68114000D01*
X131086000Y-67860000D01*
X130959000Y-67606000D01*
X130897370Y-67225000D01*
X130959000Y-66844000D01*
X131213000Y-66463000D01*
X131594000Y-66209000D01*
X131975000Y-66147370D01*
X132356000Y-66209000D01*
G37*
X132356000Y-66209000D02*
X132737000Y-66463000D01*
X132991000Y-66844000D01*
X133052630Y-67225000D01*
X132864000Y-67733000D01*
X132737000Y-67987000D01*
X132356000Y-68241000D01*
X131975000Y-68302630D01*
X131594000Y-68241000D01*
X131340000Y-68114000D01*
X131086000Y-67860000D01*
X130959000Y-67606000D01*
X130897370Y-67225000D01*
X130959000Y-66844000D01*
X131213000Y-66463000D01*
X131594000Y-66209000D01*
X131975000Y-66147370D01*
X132356000Y-66209000D01*
%TO.C,D6*%
X146218400Y-70501600D02*
X146218400Y-68596600D01*
X146218400Y-68596600D02*
X143830800Y-68571200D01*
X143830800Y-68571200D02*
X143830800Y-70501600D01*
X143830800Y-70501600D02*
X146218400Y-70501600D01*
G36*
X146218400Y-68596600D02*
G01*
X146218400Y-70501600D01*
X143830800Y-70501600D01*
X143830800Y-68571200D01*
X146218400Y-68596600D01*
G37*
X146218400Y-68596600D02*
X146218400Y-70501600D01*
X143830800Y-70501600D01*
X143830800Y-68571200D01*
X146218400Y-68596600D01*
X146218400Y-65853400D02*
X146218400Y-63999200D01*
X146218400Y-63999200D02*
X143881600Y-63999200D01*
X143881600Y-63999200D02*
X143881600Y-65853400D01*
X143881600Y-65853400D02*
X146218400Y-65853400D01*
G36*
X146218400Y-65853400D02*
G01*
X143881600Y-65853400D01*
X143881600Y-63999200D01*
X146218400Y-63999200D01*
X146218400Y-65853400D01*
G37*
X146218400Y-65853400D02*
X143881600Y-65853400D01*
X143881600Y-63999200D01*
X146218400Y-63999200D01*
X146218400Y-65853400D01*
D11*
X146127631Y-67225000D02*
G75*
G03*
X146127631Y-67225000I-1077631J0D01*
G01*
D10*
X144034000Y-67606000D02*
X144161000Y-67860000D01*
X144161000Y-67860000D02*
X144415000Y-68114000D01*
X144415000Y-68114000D02*
X144669000Y-68241000D01*
X144669000Y-68241000D02*
X145050000Y-68302630D01*
X145050000Y-68302630D02*
X145431000Y-68241000D01*
X145431000Y-68241000D02*
X145812000Y-67987000D01*
X145812000Y-67987000D02*
X145939000Y-67733000D01*
X145939000Y-67733000D02*
X146127630Y-67225000D01*
X146127630Y-67225000D02*
X146066000Y-66844000D01*
X146066000Y-66844000D02*
X145812000Y-66463000D01*
X145812000Y-66463000D02*
X145431000Y-66209000D01*
X145431000Y-66209000D02*
X145050000Y-66147370D01*
X145050000Y-66147370D02*
X144669000Y-66209000D01*
X144669000Y-66209000D02*
X144288000Y-66463000D01*
X144288000Y-66463000D02*
X144034000Y-66844000D01*
X144034000Y-66844000D02*
X143972370Y-67225000D01*
X143972370Y-67225000D02*
X144034000Y-67606000D01*
G36*
X145431000Y-66209000D02*
G01*
X145812000Y-66463000D01*
X146066000Y-66844000D01*
X146127630Y-67225000D01*
X145939000Y-67733000D01*
X145812000Y-67987000D01*
X145431000Y-68241000D01*
X145050000Y-68302630D01*
X144669000Y-68241000D01*
X144415000Y-68114000D01*
X144161000Y-67860000D01*
X144034000Y-67606000D01*
X143972370Y-67225000D01*
X144034000Y-66844000D01*
X144288000Y-66463000D01*
X144669000Y-66209000D01*
X145050000Y-66147370D01*
X145431000Y-66209000D01*
G37*
X145431000Y-66209000D02*
X145812000Y-66463000D01*
X146066000Y-66844000D01*
X146127630Y-67225000D01*
X145939000Y-67733000D01*
X145812000Y-67987000D01*
X145431000Y-68241000D01*
X145050000Y-68302630D01*
X144669000Y-68241000D01*
X144415000Y-68114000D01*
X144161000Y-67860000D01*
X144034000Y-67606000D01*
X143972370Y-67225000D01*
X144034000Y-66844000D01*
X144288000Y-66463000D01*
X144669000Y-66209000D01*
X145050000Y-66147370D01*
X145431000Y-66209000D01*
%TO.C,D5*%
X139593400Y-70551600D02*
X139593400Y-68646600D01*
X139593400Y-68646600D02*
X137205800Y-68621200D01*
X137205800Y-68621200D02*
X137205800Y-70551600D01*
X137205800Y-70551600D02*
X139593400Y-70551600D01*
G36*
X139593400Y-68646600D02*
G01*
X139593400Y-70551600D01*
X137205800Y-70551600D01*
X137205800Y-68621200D01*
X139593400Y-68646600D01*
G37*
X139593400Y-68646600D02*
X139593400Y-70551600D01*
X137205800Y-70551600D01*
X137205800Y-68621200D01*
X139593400Y-68646600D01*
X139593400Y-65903400D02*
X139593400Y-64049200D01*
X139593400Y-64049200D02*
X137256600Y-64049200D01*
X137256600Y-64049200D02*
X137256600Y-65903400D01*
X137256600Y-65903400D02*
X139593400Y-65903400D01*
G36*
X139593400Y-65903400D02*
G01*
X137256600Y-65903400D01*
X137256600Y-64049200D01*
X139593400Y-64049200D01*
X139593400Y-65903400D01*
G37*
X139593400Y-65903400D02*
X137256600Y-65903400D01*
X137256600Y-64049200D01*
X139593400Y-64049200D01*
X139593400Y-65903400D01*
D11*
X139502631Y-67275000D02*
G75*
G03*
X139502631Y-67275000I-1077631J0D01*
G01*
D10*
X137409000Y-67656000D02*
X137536000Y-67910000D01*
X137536000Y-67910000D02*
X137790000Y-68164000D01*
X137790000Y-68164000D02*
X138044000Y-68291000D01*
X138044000Y-68291000D02*
X138425000Y-68352630D01*
X138425000Y-68352630D02*
X138806000Y-68291000D01*
X138806000Y-68291000D02*
X139187000Y-68037000D01*
X139187000Y-68037000D02*
X139314000Y-67783000D01*
X139314000Y-67783000D02*
X139502630Y-67275000D01*
X139502630Y-67275000D02*
X139441000Y-66894000D01*
X139441000Y-66894000D02*
X139187000Y-66513000D01*
X139187000Y-66513000D02*
X138806000Y-66259000D01*
X138806000Y-66259000D02*
X138425000Y-66197370D01*
X138425000Y-66197370D02*
X138044000Y-66259000D01*
X138044000Y-66259000D02*
X137663000Y-66513000D01*
X137663000Y-66513000D02*
X137409000Y-66894000D01*
X137409000Y-66894000D02*
X137347370Y-67275000D01*
X137347370Y-67275000D02*
X137409000Y-67656000D01*
G36*
X138806000Y-66259000D02*
G01*
X139187000Y-66513000D01*
X139441000Y-66894000D01*
X139502630Y-67275000D01*
X139314000Y-67783000D01*
X139187000Y-68037000D01*
X138806000Y-68291000D01*
X138425000Y-68352630D01*
X138044000Y-68291000D01*
X137790000Y-68164000D01*
X137536000Y-67910000D01*
X137409000Y-67656000D01*
X137347370Y-67275000D01*
X137409000Y-66894000D01*
X137663000Y-66513000D01*
X138044000Y-66259000D01*
X138425000Y-66197370D01*
X138806000Y-66259000D01*
G37*
X138806000Y-66259000D02*
X139187000Y-66513000D01*
X139441000Y-66894000D01*
X139502630Y-67275000D01*
X139314000Y-67783000D01*
X139187000Y-68037000D01*
X138806000Y-68291000D01*
X138425000Y-68352630D01*
X138044000Y-68291000D01*
X137790000Y-68164000D01*
X137536000Y-67910000D01*
X137409000Y-67656000D01*
X137347370Y-67275000D01*
X137409000Y-66894000D01*
X137663000Y-66513000D01*
X138044000Y-66259000D01*
X138425000Y-66197370D01*
X138806000Y-66259000D01*
%TO.C,D3*%
X126068400Y-70601600D02*
X126068400Y-68696600D01*
X126068400Y-68696600D02*
X123680800Y-68671200D01*
X123680800Y-68671200D02*
X123680800Y-70601600D01*
X123680800Y-70601600D02*
X126068400Y-70601600D01*
G36*
X126068400Y-68696600D02*
G01*
X126068400Y-70601600D01*
X123680800Y-70601600D01*
X123680800Y-68671200D01*
X126068400Y-68696600D01*
G37*
X126068400Y-68696600D02*
X126068400Y-70601600D01*
X123680800Y-70601600D01*
X123680800Y-68671200D01*
X126068400Y-68696600D01*
X126068400Y-65953400D02*
X126068400Y-64099200D01*
X126068400Y-64099200D02*
X123731600Y-64099200D01*
X123731600Y-64099200D02*
X123731600Y-65953400D01*
X123731600Y-65953400D02*
X126068400Y-65953400D01*
G36*
X126068400Y-65953400D02*
G01*
X123731600Y-65953400D01*
X123731600Y-64099200D01*
X126068400Y-64099200D01*
X126068400Y-65953400D01*
G37*
X126068400Y-65953400D02*
X123731600Y-65953400D01*
X123731600Y-64099200D01*
X126068400Y-64099200D01*
X126068400Y-65953400D01*
D11*
X125977631Y-67325000D02*
G75*
G03*
X125977631Y-67325000I-1077631J0D01*
G01*
D10*
X123884000Y-67706000D02*
X124011000Y-67960000D01*
X124011000Y-67960000D02*
X124265000Y-68214000D01*
X124265000Y-68214000D02*
X124519000Y-68341000D01*
X124519000Y-68341000D02*
X124900000Y-68402630D01*
X124900000Y-68402630D02*
X125281000Y-68341000D01*
X125281000Y-68341000D02*
X125662000Y-68087000D01*
X125662000Y-68087000D02*
X125789000Y-67833000D01*
X125789000Y-67833000D02*
X125977630Y-67325000D01*
X125977630Y-67325000D02*
X125916000Y-66944000D01*
X125916000Y-66944000D02*
X125662000Y-66563000D01*
X125662000Y-66563000D02*
X125281000Y-66309000D01*
X125281000Y-66309000D02*
X124900000Y-66247370D01*
X124900000Y-66247370D02*
X124519000Y-66309000D01*
X124519000Y-66309000D02*
X124138000Y-66563000D01*
X124138000Y-66563000D02*
X123884000Y-66944000D01*
X123884000Y-66944000D02*
X123822370Y-67325000D01*
X123822370Y-67325000D02*
X123884000Y-67706000D01*
G36*
X125281000Y-66309000D02*
G01*
X125662000Y-66563000D01*
X125916000Y-66944000D01*
X125977630Y-67325000D01*
X125789000Y-67833000D01*
X125662000Y-68087000D01*
X125281000Y-68341000D01*
X124900000Y-68402630D01*
X124519000Y-68341000D01*
X124265000Y-68214000D01*
X124011000Y-67960000D01*
X123884000Y-67706000D01*
X123822370Y-67325000D01*
X123884000Y-66944000D01*
X124138000Y-66563000D01*
X124519000Y-66309000D01*
X124900000Y-66247370D01*
X125281000Y-66309000D01*
G37*
X125281000Y-66309000D02*
X125662000Y-66563000D01*
X125916000Y-66944000D01*
X125977630Y-67325000D01*
X125789000Y-67833000D01*
X125662000Y-68087000D01*
X125281000Y-68341000D01*
X124900000Y-68402630D01*
X124519000Y-68341000D01*
X124265000Y-68214000D01*
X124011000Y-67960000D01*
X123884000Y-67706000D01*
X123822370Y-67325000D01*
X123884000Y-66944000D01*
X124138000Y-66563000D01*
X124519000Y-66309000D01*
X124900000Y-66247370D01*
X125281000Y-66309000D01*
%TD*%
D12*
%TO.C,SW_Reset1*%
X129375000Y-83525000D03*
X125975000Y-83525000D03*
%TD*%
D13*
%TO.C,SW1*%
X149575000Y-49350000D03*
X149575000Y-52750000D03*
%TD*%
D14*
%TO.C,J1*%
X156029660Y-50106580D03*
D15*
X156029660Y-52646580D03*
%TD*%
D16*
%TO.C,REF\u002A\u002A*%
X164325000Y-50425000D03*
%TD*%
D17*
%TO.C,U3*%
X136180000Y-127225000D03*
X134910000Y-127225000D03*
X133640000Y-127225000D03*
X132370000Y-127225000D03*
X132370000Y-132725000D03*
X133640000Y-132725000D03*
X134910000Y-132725000D03*
X136180000Y-132725000D03*
%TD*%
D14*
%TO.C,J5*%
X124447300Y-138595100D03*
D15*
X124447300Y-141135100D03*
%TD*%
D14*
%TO.C,J4*%
X124396500Y-134028180D03*
D15*
X124396500Y-131488180D03*
%TD*%
D16*
%TO.C,REF\u002A\u002A*%
X79786480Y-50497740D03*
%TD*%
D18*
%TO.C,J3*%
X113200000Y-141250000D03*
X118200000Y-141250000D03*
D19*
X111825000Y-144000000D03*
X119575000Y-144000000D03*
D20*
X111975000Y-140200000D03*
X119425000Y-140200000D03*
D21*
X114400000Y-140150000D03*
X115050000Y-140150000D03*
X115700000Y-140150000D03*
X116350000Y-140150000D03*
X117000000Y-140150000D03*
%TD*%
D22*
%TO.C,C4*%
X157937500Y-128075000D03*
X159812500Y-128075000D03*
%TD*%
D23*
%TO.C,X1*%
X138180200Y-51898400D03*
X138180200Y-54438400D03*
D24*
X135640200Y-51898400D03*
X135640200Y-54438400D03*
X133100200Y-51898400D03*
D25*
X133100200Y-54438400D03*
%TD*%
D26*
%TO.C,BT1*%
X85955000Y-122375000D03*
D27*
X94175000Y-106375000D03*
X149375000Y-122375000D03*
D28*
X82105000Y-114375000D03*
X161445000Y-114375000D03*
%TD*%
D29*
%TO.C,U4*%
X141100000Y-143250000D03*
D30*
X138800000Y-136950000D03*
X141100000Y-136950000D03*
X143400000Y-136950000D03*
%TD*%
D31*
%TO.C,C5*%
X141160500Y-130063000D03*
X141160500Y-131938000D03*
%TD*%
D32*
%TO.C,D4*%
X131600000Y-68775000D03*
X132350000Y-65675000D03*
%TD*%
D33*
%TO.C,U2*%
X114990000Y-83675000D03*
X114990000Y-85225000D03*
X114990000Y-86725000D03*
X113490000Y-86725000D03*
X111990000Y-86725000D03*
X111990000Y-85225000D03*
X111990000Y-83675000D03*
X113490000Y-83675000D03*
X113490000Y-85225000D03*
D34*
X103550000Y-77175000D03*
X103550000Y-78675000D03*
X103550000Y-80175000D03*
X103550000Y-81675000D03*
X103550000Y-83175000D03*
X103550000Y-84675000D03*
X103550000Y-86175000D03*
X103550000Y-87675000D03*
X103550000Y-89175000D03*
X103550000Y-90675000D03*
X103550000Y-92175000D03*
X103550000Y-93675000D03*
X103550000Y-95175000D03*
X103550000Y-96675000D03*
X103550000Y-98175000D03*
X103550000Y-99675000D03*
D35*
X105550000Y-100425000D03*
X107050000Y-100425000D03*
X108550000Y-100425000D03*
X110050000Y-100425000D03*
X111550000Y-100425000D03*
X113050000Y-100425000D03*
X114550000Y-100425000D03*
X116050000Y-100425000D03*
X117550000Y-100425000D03*
X119050000Y-100425000D03*
D34*
X121050000Y-77175000D03*
X121050000Y-78675000D03*
X121050000Y-80175000D03*
X121050000Y-81675000D03*
X121050000Y-83175000D03*
X121050000Y-84675000D03*
X121050000Y-86175000D03*
X121050000Y-87675000D03*
X121050000Y-89175000D03*
X121050000Y-90675000D03*
X121050000Y-92175000D03*
X121050000Y-93675000D03*
X121050000Y-95175000D03*
X121050000Y-96675000D03*
X121050000Y-98175000D03*
X121050000Y-99675000D03*
%TD*%
D36*
%TO.C,U1*%
X153500000Y-131500000D03*
X151600000Y-131500000D03*
X153500000Y-134100000D03*
X151600000Y-134100000D03*
X152550000Y-134100000D03*
%TD*%
D37*
%TO.C,SW6*%
X154075000Y-143020000D03*
X146775000Y-143020000D03*
X146775000Y-145230000D03*
X154075000Y-145230000D03*
D38*
X148175000Y-142370000D03*
X149675000Y-142370000D03*
X152675000Y-142370000D03*
D39*
X148925000Y-144130000D03*
X151925000Y-144130000D03*
%TD*%
D40*
%TO.C,R5*%
X134550000Y-101625000D03*
X131750000Y-101625000D03*
%TD*%
D41*
%TO.C,R4*%
X130750000Y-79375000D03*
X133550000Y-79375000D03*
%TD*%
%TO.C,R3*%
X162300000Y-136325000D03*
X165100000Y-136325000D03*
%TD*%
D42*
%TO.C,R2*%
X157450000Y-140250000D03*
X157450000Y-137450000D03*
%TD*%
D41*
%TO.C,R1*%
X131850000Y-91925000D03*
X134650000Y-91925000D03*
%TD*%
D43*
%TO.C,J2*%
X81525000Y-91970000D03*
X81525000Y-89430000D03*
X81525000Y-86890000D03*
X81525000Y-84350000D03*
%TD*%
D32*
%TO.C,D6*%
X144675000Y-68775000D03*
X145425000Y-65675000D03*
%TD*%
%TO.C,D5*%
X138050000Y-68825000D03*
X138800000Y-65725000D03*
%TD*%
%TO.C,D3*%
X124525000Y-68875000D03*
X125275000Y-65775000D03*
%TD*%
D41*
%TO.C,D2*%
X162250000Y-131225000D03*
X165050000Y-131225000D03*
%TD*%
%TO.C,D1*%
X131575000Y-88025000D03*
X134375000Y-88025000D03*
%TD*%
D31*
%TO.C,C3*%
X147325000Y-135987500D03*
X147325000Y-137862500D03*
%TD*%
D22*
%TO.C,C2*%
X145137500Y-130575000D03*
X147012500Y-130575000D03*
%TD*%
%TO.C,C1*%
X132287500Y-96925000D03*
X134162500Y-96925000D03*
%TD*%
M02*
