%TF.GenerationSoftware,KiCad,Pcbnew,(6.0.0)*%
%TF.CreationDate,2021-12-30T12:50:52-06:00*%
%TF.ProjectId,ProspectBoards,50726f73-7065-4637-9442-6f617264732e,1.3*%
%TF.SameCoordinates,Original*%
%TF.FileFunction,Soldermask,Top*%
%TF.FilePolarity,Negative*%
%FSLAX46Y46*%
G04 Gerber Fmt 4.6, Leading zero omitted, Abs format (unit mm)*
G04 Created by KiCad (PCBNEW (6.0.0)) date 2021-12-30 12:50:52*
%MOMM*%
%LPD*%
G01*
G04 APERTURE LIST*
%ADD10C,0.100000*%
%ADD11R,1.700000X1.700000*%
%ADD12O,1.700000X1.700000*%
%ADD13R,1.500000X1.000000*%
%ADD14O,12.500000X5.500000*%
%ADD15O,0.800000X0.800000*%
%ADD16O,1.150000X1.800000*%
%ADD17O,1.450000X2.000000*%
%ADD18C,1.727200*%
%ADD19O,1.727200X1.727200*%
%ADD20R,1.727200X1.727200*%
%ADD21C,2.390000*%
%ADD22C,3.450000*%
%ADD23C,0.900000*%
%ADD24C,2.020000*%
G04 APERTURE END LIST*
D10*
X133350000Y-68206620D02*
X130693160Y-68305680D01*
X130693160Y-68305680D02*
X130594100Y-66466720D01*
X130594100Y-66466720D02*
X130594100Y-66220340D01*
X130594100Y-66220340D02*
X133299200Y-66220340D01*
X133299200Y-66220340D02*
X133350000Y-68206620D01*
G36*
X133350000Y-68206620D02*
G01*
X130693160Y-68305680D01*
X130594100Y-66466720D01*
X130594100Y-66220340D01*
X133299200Y-66220340D01*
X133350000Y-68206620D01*
G37*
X133350000Y-68206620D02*
X130693160Y-68305680D01*
X130594100Y-66466720D01*
X130594100Y-66220340D01*
X133299200Y-66220340D01*
X133350000Y-68206620D01*
X146377660Y-66169540D02*
X146456400Y-68369180D01*
X146456400Y-68369180D02*
X143781780Y-68348860D01*
X143781780Y-68348860D02*
X143710660Y-66159380D01*
X143710660Y-66159380D02*
X143720820Y-66159380D01*
X143720820Y-66159380D02*
X146377660Y-66169540D01*
G36*
X146377660Y-66169540D02*
G01*
X146456400Y-68369180D01*
X143781780Y-68348860D01*
X143710660Y-66159380D01*
X143720820Y-66159380D01*
X146377660Y-66169540D01*
G37*
X146377660Y-66169540D02*
X146456400Y-68369180D01*
X143781780Y-68348860D01*
X143710660Y-66159380D01*
X143720820Y-66159380D01*
X146377660Y-66169540D01*
X139976860Y-68277740D02*
X137228580Y-68379340D01*
X137228580Y-68379340D02*
X137248900Y-66288920D01*
X137248900Y-66288920D02*
X137269220Y-66258440D01*
X137269220Y-66258440D02*
X139915900Y-66227960D01*
X139915900Y-66227960D02*
X139976860Y-68277740D01*
G36*
X139976860Y-68277740D02*
G01*
X137228580Y-68379340D01*
X137248900Y-66288920D01*
X137269220Y-66258440D01*
X139915900Y-66227960D01*
X139976860Y-68277740D01*
G37*
X139976860Y-68277740D02*
X137228580Y-68379340D01*
X137248900Y-66288920D01*
X137269220Y-66258440D01*
X139915900Y-66227960D01*
X139976860Y-68277740D01*
X126250700Y-66255900D02*
X126161800Y-68422520D01*
X126161800Y-68422520D02*
X123756420Y-68442840D01*
X123756420Y-68442840D02*
X123804680Y-66304160D01*
X123804680Y-66304160D02*
X123825000Y-66304160D01*
X123825000Y-66304160D02*
X124815600Y-66179700D01*
X124815600Y-66179700D02*
X126250700Y-66255900D01*
G36*
X126250700Y-66255900D02*
G01*
X126161800Y-68422520D01*
X123756420Y-68442840D01*
X123804680Y-66304160D01*
X123825000Y-66304160D01*
X124815600Y-66179700D01*
X126250700Y-66255900D01*
G37*
X126250700Y-66255900D02*
X126161800Y-68422520D01*
X123756420Y-68442840D01*
X123804680Y-66304160D01*
X123825000Y-66304160D01*
X124815600Y-66179700D01*
X126250700Y-66255900D01*
D11*
%TO.C,J1*%
X156029660Y-50106580D03*
D12*
X156029660Y-52646580D03*
%TD*%
D13*
%TO.C,D7*%
X167000000Y-62025000D03*
X167000000Y-63625000D03*
X167000000Y-65225000D03*
X162100000Y-65225000D03*
X162100000Y-63625000D03*
X162100000Y-62025000D03*
%TD*%
D14*
%TO.C,REF\u002A\u002A*%
X164325000Y-50425000D03*
%TD*%
D11*
%TO.C,J5*%
X124447300Y-138595100D03*
D12*
X124447300Y-141135100D03*
%TD*%
D11*
%TO.C,J4*%
X124396500Y-134028180D03*
D12*
X124396500Y-131488180D03*
%TD*%
D14*
%TO.C,REF\u002A\u002A*%
X79786480Y-50497740D03*
%TD*%
D15*
%TO.C,J3*%
X113200000Y-141250000D03*
X118200000Y-141250000D03*
D16*
X111825000Y-144000000D03*
X119575000Y-144000000D03*
D17*
X111975000Y-140200000D03*
X119425000Y-140200000D03*
%TD*%
D18*
%TO.C,X1*%
X138180200Y-51898400D03*
X138180200Y-54438400D03*
D19*
X135640200Y-51898400D03*
X135640200Y-54438400D03*
X133100200Y-51898400D03*
D20*
X133100200Y-54438400D03*
%TD*%
D21*
%TO.C,BT1*%
X85955000Y-122375000D03*
D22*
X94175000Y-106375000D03*
X149375000Y-122375000D03*
%TD*%
D23*
%TO.C,SW6*%
X148925000Y-144130000D03*
X151925000Y-144130000D03*
%TD*%
D24*
%TO.C,J2*%
X81525000Y-91970000D03*
X81525000Y-89430000D03*
X81525000Y-86890000D03*
X81525000Y-84350000D03*
%TD*%
M02*
