%TF.GenerationSoftware,KiCad,Pcbnew,(5.1.10)-1*%
%TF.CreationDate,2021-11-08T11:40:21-08:00*%
%TF.ProjectId,ProspectBoards,50726f73-7065-4637-9442-6f617264732e,rev?*%
%TF.SameCoordinates,Original*%
%TF.FileFunction,Soldermask,Bot*%
%TF.FilePolarity,Negative*%
%FSLAX46Y46*%
G04 Gerber Fmt 4.6, Leading zero omitted, Abs format (unit mm)*
G04 Created by KiCad (PCBNEW (5.1.10)-1) date 2021-11-08 11:40:21*
%MOMM*%
%LPD*%
G01*
G04 APERTURE LIST*
%ADD10C,0.100000*%
%ADD11C,0.120000*%
%ADD12R,1.700000X1.700000*%
%ADD13O,1.700000X1.700000*%
%ADD14O,0.800000X0.800000*%
%ADD15O,1.150000X1.800000*%
%ADD16O,1.450000X2.000000*%
%ADD17R,0.450000X1.300000*%
%ADD18C,1.727200*%
%ADD19O,1.727200X1.727200*%
%ADD20R,1.727200X1.727200*%
%ADD21C,2.390000*%
%ADD22C,3.450000*%
%ADD23R,7.460000X6.470000*%
%ADD24R,3.300000X2.410000*%
%ADD25R,3.800000X2.200000*%
%ADD26R,1.500000X2.200000*%
%ADD27R,0.800000X1.700000*%
%ADD28R,0.700000X0.500000*%
%ADD29R,1.100000X1.100000*%
%ADD30R,1.500000X0.900000*%
%ADD31R,0.900000X1.500000*%
%ADD32R,0.600000X1.200000*%
%ADD33R,1.000000X0.800000*%
%ADD34R,0.700000X1.500000*%
%ADD35C,0.900000*%
%ADD36C,2.020000*%
G04 APERTURE END LIST*
D10*
%TO.C,D4*%
G36*
X133143400Y-70501600D02*
G01*
X133143400Y-68596600D01*
X130755800Y-68571200D01*
X130755800Y-70501600D01*
X133143400Y-70501600D01*
G37*
X133143400Y-70501600D02*
X133143400Y-68596600D01*
X130755800Y-68571200D01*
X130755800Y-70501600D01*
X133143400Y-70501600D01*
G36*
X133143400Y-65853400D02*
G01*
X133143400Y-63999200D01*
X130806600Y-63999200D01*
X130806600Y-65853400D01*
X133143400Y-65853400D01*
G37*
X133143400Y-65853400D02*
X133143400Y-63999200D01*
X130806600Y-63999200D01*
X130806600Y-65853400D01*
X133143400Y-65853400D01*
D11*
X133052631Y-67225000D02*
G75*
G03*
X133052631Y-67225000I-1077631J0D01*
G01*
D10*
G36*
X130959000Y-67606000D02*
G01*
X131086000Y-67860000D01*
X131340000Y-68114000D01*
X131594000Y-68241000D01*
X131975000Y-68302630D01*
X132356000Y-68241000D01*
X132737000Y-67987000D01*
X132864000Y-67733000D01*
X133052630Y-67225000D01*
X132991000Y-66844000D01*
X132737000Y-66463000D01*
X132356000Y-66209000D01*
X131975000Y-66147370D01*
X131594000Y-66209000D01*
X131213000Y-66463000D01*
X130959000Y-66844000D01*
X130897370Y-67225000D01*
X130959000Y-67606000D01*
G37*
X130959000Y-67606000D02*
X131086000Y-67860000D01*
X131340000Y-68114000D01*
X131594000Y-68241000D01*
X131975000Y-68302630D01*
X132356000Y-68241000D01*
X132737000Y-67987000D01*
X132864000Y-67733000D01*
X133052630Y-67225000D01*
X132991000Y-66844000D01*
X132737000Y-66463000D01*
X132356000Y-66209000D01*
X131975000Y-66147370D01*
X131594000Y-66209000D01*
X131213000Y-66463000D01*
X130959000Y-66844000D01*
X130897370Y-67225000D01*
X130959000Y-67606000D01*
%TO.C,D6*%
G36*
X146218400Y-70501600D02*
G01*
X146218400Y-68596600D01*
X143830800Y-68571200D01*
X143830800Y-70501600D01*
X146218400Y-70501600D01*
G37*
X146218400Y-70501600D02*
X146218400Y-68596600D01*
X143830800Y-68571200D01*
X143830800Y-70501600D01*
X146218400Y-70501600D01*
G36*
X146218400Y-65853400D02*
G01*
X146218400Y-63999200D01*
X143881600Y-63999200D01*
X143881600Y-65853400D01*
X146218400Y-65853400D01*
G37*
X146218400Y-65853400D02*
X146218400Y-63999200D01*
X143881600Y-63999200D01*
X143881600Y-65853400D01*
X146218400Y-65853400D01*
D11*
X146127631Y-67225000D02*
G75*
G03*
X146127631Y-67225000I-1077631J0D01*
G01*
D10*
G36*
X144034000Y-67606000D02*
G01*
X144161000Y-67860000D01*
X144415000Y-68114000D01*
X144669000Y-68241000D01*
X145050000Y-68302630D01*
X145431000Y-68241000D01*
X145812000Y-67987000D01*
X145939000Y-67733000D01*
X146127630Y-67225000D01*
X146066000Y-66844000D01*
X145812000Y-66463000D01*
X145431000Y-66209000D01*
X145050000Y-66147370D01*
X144669000Y-66209000D01*
X144288000Y-66463000D01*
X144034000Y-66844000D01*
X143972370Y-67225000D01*
X144034000Y-67606000D01*
G37*
X144034000Y-67606000D02*
X144161000Y-67860000D01*
X144415000Y-68114000D01*
X144669000Y-68241000D01*
X145050000Y-68302630D01*
X145431000Y-68241000D01*
X145812000Y-67987000D01*
X145939000Y-67733000D01*
X146127630Y-67225000D01*
X146066000Y-66844000D01*
X145812000Y-66463000D01*
X145431000Y-66209000D01*
X145050000Y-66147370D01*
X144669000Y-66209000D01*
X144288000Y-66463000D01*
X144034000Y-66844000D01*
X143972370Y-67225000D01*
X144034000Y-67606000D01*
%TO.C,D5*%
G36*
X139593400Y-70551600D02*
G01*
X139593400Y-68646600D01*
X137205800Y-68621200D01*
X137205800Y-70551600D01*
X139593400Y-70551600D01*
G37*
X139593400Y-70551600D02*
X139593400Y-68646600D01*
X137205800Y-68621200D01*
X137205800Y-70551600D01*
X139593400Y-70551600D01*
G36*
X139593400Y-65903400D02*
G01*
X139593400Y-64049200D01*
X137256600Y-64049200D01*
X137256600Y-65903400D01*
X139593400Y-65903400D01*
G37*
X139593400Y-65903400D02*
X139593400Y-64049200D01*
X137256600Y-64049200D01*
X137256600Y-65903400D01*
X139593400Y-65903400D01*
D11*
X139502631Y-67275000D02*
G75*
G03*
X139502631Y-67275000I-1077631J0D01*
G01*
D10*
G36*
X137409000Y-67656000D02*
G01*
X137536000Y-67910000D01*
X137790000Y-68164000D01*
X138044000Y-68291000D01*
X138425000Y-68352630D01*
X138806000Y-68291000D01*
X139187000Y-68037000D01*
X139314000Y-67783000D01*
X139502630Y-67275000D01*
X139441000Y-66894000D01*
X139187000Y-66513000D01*
X138806000Y-66259000D01*
X138425000Y-66197370D01*
X138044000Y-66259000D01*
X137663000Y-66513000D01*
X137409000Y-66894000D01*
X137347370Y-67275000D01*
X137409000Y-67656000D01*
G37*
X137409000Y-67656000D02*
X137536000Y-67910000D01*
X137790000Y-68164000D01*
X138044000Y-68291000D01*
X138425000Y-68352630D01*
X138806000Y-68291000D01*
X139187000Y-68037000D01*
X139314000Y-67783000D01*
X139502630Y-67275000D01*
X139441000Y-66894000D01*
X139187000Y-66513000D01*
X138806000Y-66259000D01*
X138425000Y-66197370D01*
X138044000Y-66259000D01*
X137663000Y-66513000D01*
X137409000Y-66894000D01*
X137347370Y-67275000D01*
X137409000Y-67656000D01*
%TO.C,D3*%
G36*
X126068400Y-70601600D02*
G01*
X126068400Y-68696600D01*
X123680800Y-68671200D01*
X123680800Y-70601600D01*
X126068400Y-70601600D01*
G37*
X126068400Y-70601600D02*
X126068400Y-68696600D01*
X123680800Y-68671200D01*
X123680800Y-70601600D01*
X126068400Y-70601600D01*
G36*
X126068400Y-65953400D02*
G01*
X126068400Y-64099200D01*
X123731600Y-64099200D01*
X123731600Y-65953400D01*
X126068400Y-65953400D01*
G37*
X126068400Y-65953400D02*
X126068400Y-64099200D01*
X123731600Y-64099200D01*
X123731600Y-65953400D01*
X126068400Y-65953400D01*
D11*
X125977631Y-67325000D02*
G75*
G03*
X125977631Y-67325000I-1077631J0D01*
G01*
D10*
G36*
X123884000Y-67706000D02*
G01*
X124011000Y-67960000D01*
X124265000Y-68214000D01*
X124519000Y-68341000D01*
X124900000Y-68402630D01*
X125281000Y-68341000D01*
X125662000Y-68087000D01*
X125789000Y-67833000D01*
X125977630Y-67325000D01*
X125916000Y-66944000D01*
X125662000Y-66563000D01*
X125281000Y-66309000D01*
X124900000Y-66247370D01*
X124519000Y-66309000D01*
X124138000Y-66563000D01*
X123884000Y-66944000D01*
X123822370Y-67325000D01*
X123884000Y-67706000D01*
G37*
X123884000Y-67706000D02*
X124011000Y-67960000D01*
X124265000Y-68214000D01*
X124519000Y-68341000D01*
X124900000Y-68402630D01*
X125281000Y-68341000D01*
X125662000Y-68087000D01*
X125789000Y-67833000D01*
X125977630Y-67325000D01*
X125916000Y-66944000D01*
X125662000Y-66563000D01*
X125281000Y-66309000D01*
X124900000Y-66247370D01*
X124519000Y-66309000D01*
X124138000Y-66563000D01*
X123884000Y-66944000D01*
X123822370Y-67325000D01*
X123884000Y-67706000D01*
%TD*%
D12*
%TO.C,J1*%
X159325000Y-50200000D03*
D13*
X159325000Y-52740000D03*
%TD*%
D14*
%TO.C,J3*%
X113200000Y-141250000D03*
X118200000Y-141250000D03*
D15*
X111825000Y-144000000D03*
X119575000Y-144000000D03*
D16*
X111975000Y-140200000D03*
X119425000Y-140200000D03*
D17*
X114400000Y-140150000D03*
X115050000Y-140150000D03*
X115700000Y-140150000D03*
X116350000Y-140150000D03*
X117000000Y-140150000D03*
%TD*%
%TO.C,C4*%
G36*
G01*
X158425000Y-127618750D02*
X158425000Y-128531250D01*
G75*
G02*
X158181250Y-128775000I-243750J0D01*
G01*
X157693750Y-128775000D01*
G75*
G02*
X157450000Y-128531250I0J243750D01*
G01*
X157450000Y-127618750D01*
G75*
G02*
X157693750Y-127375000I243750J0D01*
G01*
X158181250Y-127375000D01*
G75*
G02*
X158425000Y-127618750I0J-243750D01*
G01*
G37*
G36*
G01*
X160300000Y-127618750D02*
X160300000Y-128531250D01*
G75*
G02*
X160056250Y-128775000I-243750J0D01*
G01*
X159568750Y-128775000D01*
G75*
G02*
X159325000Y-128531250I0J243750D01*
G01*
X159325000Y-127618750D01*
G75*
G02*
X159568750Y-127375000I243750J0D01*
G01*
X160056250Y-127375000D01*
G75*
G02*
X160300000Y-127618750I0J-243750D01*
G01*
G37*
%TD*%
D18*
%TO.C,X1*%
X138180200Y-51898400D03*
X138180200Y-54438400D03*
D19*
X135640200Y-51898400D03*
X135640200Y-54438400D03*
X133100200Y-51898400D03*
D20*
X133100200Y-54438400D03*
%TD*%
D21*
%TO.C,BT1*%
X85955000Y-122375000D03*
D22*
X94175000Y-106375000D03*
X149375000Y-122375000D03*
D23*
X82105000Y-114375000D03*
X161445000Y-114375000D03*
%TD*%
%TO.C,U3*%
G36*
G01*
X136575000Y-126350000D02*
X136575000Y-128100000D01*
G75*
G02*
X136505000Y-128170000I-70000J0D01*
G01*
X135855000Y-128170000D01*
G75*
G02*
X135785000Y-128100000I0J70000D01*
G01*
X135785000Y-126350000D01*
G75*
G02*
X135855000Y-126280000I70000J0D01*
G01*
X136505000Y-126280000D01*
G75*
G02*
X136575000Y-126350000I0J-70000D01*
G01*
G37*
G36*
G01*
X135305000Y-126350000D02*
X135305000Y-128100000D01*
G75*
G02*
X135235000Y-128170000I-70000J0D01*
G01*
X134585000Y-128170000D01*
G75*
G02*
X134515000Y-128100000I0J70000D01*
G01*
X134515000Y-126350000D01*
G75*
G02*
X134585000Y-126280000I70000J0D01*
G01*
X135235000Y-126280000D01*
G75*
G02*
X135305000Y-126350000I0J-70000D01*
G01*
G37*
G36*
G01*
X134035000Y-126350000D02*
X134035000Y-128100000D01*
G75*
G02*
X133965000Y-128170000I-70000J0D01*
G01*
X133315000Y-128170000D01*
G75*
G02*
X133245000Y-128100000I0J70000D01*
G01*
X133245000Y-126350000D01*
G75*
G02*
X133315000Y-126280000I70000J0D01*
G01*
X133965000Y-126280000D01*
G75*
G02*
X134035000Y-126350000I0J-70000D01*
G01*
G37*
G36*
G01*
X132765000Y-126350000D02*
X132765000Y-128100000D01*
G75*
G02*
X132695000Y-128170000I-70000J0D01*
G01*
X132045000Y-128170000D01*
G75*
G02*
X131975000Y-128100000I0J70000D01*
G01*
X131975000Y-126350000D01*
G75*
G02*
X132045000Y-126280000I70000J0D01*
G01*
X132695000Y-126280000D01*
G75*
G02*
X132765000Y-126350000I0J-70000D01*
G01*
G37*
G36*
G01*
X132765000Y-131850000D02*
X132765000Y-133600000D01*
G75*
G02*
X132695000Y-133670000I-70000J0D01*
G01*
X132045000Y-133670000D01*
G75*
G02*
X131975000Y-133600000I0J70000D01*
G01*
X131975000Y-131850000D01*
G75*
G02*
X132045000Y-131780000I70000J0D01*
G01*
X132695000Y-131780000D01*
G75*
G02*
X132765000Y-131850000I0J-70000D01*
G01*
G37*
G36*
G01*
X134035000Y-131850000D02*
X134035000Y-133600000D01*
G75*
G02*
X133965000Y-133670000I-70000J0D01*
G01*
X133315000Y-133670000D01*
G75*
G02*
X133245000Y-133600000I0J70000D01*
G01*
X133245000Y-131850000D01*
G75*
G02*
X133315000Y-131780000I70000J0D01*
G01*
X133965000Y-131780000D01*
G75*
G02*
X134035000Y-131850000I0J-70000D01*
G01*
G37*
G36*
G01*
X135305000Y-131850000D02*
X135305000Y-133600000D01*
G75*
G02*
X135235000Y-133670000I-70000J0D01*
G01*
X134585000Y-133670000D01*
G75*
G02*
X134515000Y-133600000I0J70000D01*
G01*
X134515000Y-131850000D01*
G75*
G02*
X134585000Y-131780000I70000J0D01*
G01*
X135235000Y-131780000D01*
G75*
G02*
X135305000Y-131850000I0J-70000D01*
G01*
G37*
D24*
X134275000Y-129975000D03*
G36*
G01*
X136575000Y-131850000D02*
X136575000Y-133600000D01*
G75*
G02*
X136505000Y-133670000I-70000J0D01*
G01*
X135855000Y-133670000D01*
G75*
G02*
X135785000Y-133600000I0J70000D01*
G01*
X135785000Y-131850000D01*
G75*
G02*
X135855000Y-131780000I70000J0D01*
G01*
X136505000Y-131780000D01*
G75*
G02*
X136575000Y-131850000I0J-70000D01*
G01*
G37*
%TD*%
D25*
%TO.C,U4*%
X141100000Y-143250000D03*
D26*
X138800000Y-136950000D03*
X141100000Y-136950000D03*
X143400000Y-136950000D03*
%TD*%
D27*
%TO.C,SW_Reset1*%
X129375000Y-83525000D03*
X125975000Y-83525000D03*
%TD*%
%TO.C,C5*%
G36*
G01*
X136793750Y-83937500D02*
X137706250Y-83937500D01*
G75*
G02*
X137950000Y-84181250I0J-243750D01*
G01*
X137950000Y-84668750D01*
G75*
G02*
X137706250Y-84912500I-243750J0D01*
G01*
X136793750Y-84912500D01*
G75*
G02*
X136550000Y-84668750I0J243750D01*
G01*
X136550000Y-84181250D01*
G75*
G02*
X136793750Y-83937500I243750J0D01*
G01*
G37*
G36*
G01*
X136793750Y-82062500D02*
X137706250Y-82062500D01*
G75*
G02*
X137950000Y-82306250I0J-243750D01*
G01*
X137950000Y-82793750D01*
G75*
G02*
X137706250Y-83037500I-243750J0D01*
G01*
X136793750Y-83037500D01*
G75*
G02*
X136550000Y-82793750I0J243750D01*
G01*
X136550000Y-82306250D01*
G75*
G02*
X136793750Y-82062500I243750J0D01*
G01*
G37*
%TD*%
D28*
%TO.C,D4*%
X131600000Y-68775000D03*
X132350000Y-65675000D03*
%TD*%
D29*
%TO.C,U2*%
X114990000Y-83675000D03*
X114990000Y-85225000D03*
X114990000Y-86725000D03*
X113490000Y-86725000D03*
X111990000Y-86725000D03*
X111990000Y-85225000D03*
X111990000Y-83675000D03*
X113490000Y-83675000D03*
X113490000Y-85225000D03*
D30*
X103550000Y-77175000D03*
X103550000Y-78675000D03*
X103550000Y-80175000D03*
X103550000Y-81675000D03*
X103550000Y-83175000D03*
X103550000Y-84675000D03*
X103550000Y-86175000D03*
X103550000Y-87675000D03*
X103550000Y-89175000D03*
X103550000Y-90675000D03*
X103550000Y-92175000D03*
X103550000Y-93675000D03*
X103550000Y-95175000D03*
X103550000Y-96675000D03*
X103550000Y-98175000D03*
X103550000Y-99675000D03*
D31*
X105550000Y-100425000D03*
X107050000Y-100425000D03*
X108550000Y-100425000D03*
X110050000Y-100425000D03*
X111550000Y-100425000D03*
X113050000Y-100425000D03*
X114550000Y-100425000D03*
X116050000Y-100425000D03*
X117550000Y-100425000D03*
X119050000Y-100425000D03*
D30*
X121050000Y-77175000D03*
X121050000Y-78675000D03*
X121050000Y-80175000D03*
X121050000Y-81675000D03*
X121050000Y-83175000D03*
X121050000Y-84675000D03*
X121050000Y-86175000D03*
X121050000Y-87675000D03*
X121050000Y-89175000D03*
X121050000Y-90675000D03*
X121050000Y-92175000D03*
X121050000Y-93675000D03*
X121050000Y-95175000D03*
X121050000Y-96675000D03*
X121050000Y-98175000D03*
X121050000Y-99675000D03*
%TD*%
D32*
%TO.C,U1*%
X153500000Y-131500000D03*
X151600000Y-131500000D03*
X153500000Y-134100000D03*
X151600000Y-134100000D03*
X152550000Y-134100000D03*
%TD*%
D33*
%TO.C,SW6*%
X154075000Y-143020000D03*
X146775000Y-143020000D03*
X146775000Y-145230000D03*
X154075000Y-145230000D03*
D34*
X148175000Y-142370000D03*
X149675000Y-142370000D03*
X152675000Y-142370000D03*
D35*
X148925000Y-144130000D03*
X151925000Y-144130000D03*
%TD*%
%TO.C,R5*%
G36*
G01*
X133925000Y-102250000D02*
X133925000Y-101000000D01*
G75*
G02*
X134175000Y-100750000I250000J0D01*
G01*
X134925000Y-100750000D01*
G75*
G02*
X135175000Y-101000000I0J-250000D01*
G01*
X135175000Y-102250000D01*
G75*
G02*
X134925000Y-102500000I-250000J0D01*
G01*
X134175000Y-102500000D01*
G75*
G02*
X133925000Y-102250000I0J250000D01*
G01*
G37*
G36*
G01*
X131125000Y-102250000D02*
X131125000Y-101000000D01*
G75*
G02*
X131375000Y-100750000I250000J0D01*
G01*
X132125000Y-100750000D01*
G75*
G02*
X132375000Y-101000000I0J-250000D01*
G01*
X132375000Y-102250000D01*
G75*
G02*
X132125000Y-102500000I-250000J0D01*
G01*
X131375000Y-102500000D01*
G75*
G02*
X131125000Y-102250000I0J250000D01*
G01*
G37*
%TD*%
%TO.C,R4*%
G36*
G01*
X131375000Y-78750000D02*
X131375000Y-80000000D01*
G75*
G02*
X131125000Y-80250000I-250000J0D01*
G01*
X130375000Y-80250000D01*
G75*
G02*
X130125000Y-80000000I0J250000D01*
G01*
X130125000Y-78750000D01*
G75*
G02*
X130375000Y-78500000I250000J0D01*
G01*
X131125000Y-78500000D01*
G75*
G02*
X131375000Y-78750000I0J-250000D01*
G01*
G37*
G36*
G01*
X134175000Y-78750000D02*
X134175000Y-80000000D01*
G75*
G02*
X133925000Y-80250000I-250000J0D01*
G01*
X133175000Y-80250000D01*
G75*
G02*
X132925000Y-80000000I0J250000D01*
G01*
X132925000Y-78750000D01*
G75*
G02*
X133175000Y-78500000I250000J0D01*
G01*
X133925000Y-78500000D01*
G75*
G02*
X134175000Y-78750000I0J-250000D01*
G01*
G37*
%TD*%
%TO.C,R3*%
G36*
G01*
X162925000Y-135700000D02*
X162925000Y-136950000D01*
G75*
G02*
X162675000Y-137200000I-250000J0D01*
G01*
X161925000Y-137200000D01*
G75*
G02*
X161675000Y-136950000I0J250000D01*
G01*
X161675000Y-135700000D01*
G75*
G02*
X161925000Y-135450000I250000J0D01*
G01*
X162675000Y-135450000D01*
G75*
G02*
X162925000Y-135700000I0J-250000D01*
G01*
G37*
G36*
G01*
X165725000Y-135700000D02*
X165725000Y-136950000D01*
G75*
G02*
X165475000Y-137200000I-250000J0D01*
G01*
X164725000Y-137200000D01*
G75*
G02*
X164475000Y-136950000I0J250000D01*
G01*
X164475000Y-135700000D01*
G75*
G02*
X164725000Y-135450000I250000J0D01*
G01*
X165475000Y-135450000D01*
G75*
G02*
X165725000Y-135700000I0J-250000D01*
G01*
G37*
%TD*%
%TO.C,R2*%
G36*
G01*
X156825000Y-139625000D02*
X158075000Y-139625000D01*
G75*
G02*
X158325000Y-139875000I0J-250000D01*
G01*
X158325000Y-140625000D01*
G75*
G02*
X158075000Y-140875000I-250000J0D01*
G01*
X156825000Y-140875000D01*
G75*
G02*
X156575000Y-140625000I0J250000D01*
G01*
X156575000Y-139875000D01*
G75*
G02*
X156825000Y-139625000I250000J0D01*
G01*
G37*
G36*
G01*
X156825000Y-136825000D02*
X158075000Y-136825000D01*
G75*
G02*
X158325000Y-137075000I0J-250000D01*
G01*
X158325000Y-137825000D01*
G75*
G02*
X158075000Y-138075000I-250000J0D01*
G01*
X156825000Y-138075000D01*
G75*
G02*
X156575000Y-137825000I0J250000D01*
G01*
X156575000Y-137075000D01*
G75*
G02*
X156825000Y-136825000I250000J0D01*
G01*
G37*
%TD*%
%TO.C,R1*%
G36*
G01*
X132475000Y-91300000D02*
X132475000Y-92550000D01*
G75*
G02*
X132225000Y-92800000I-250000J0D01*
G01*
X131475000Y-92800000D01*
G75*
G02*
X131225000Y-92550000I0J250000D01*
G01*
X131225000Y-91300000D01*
G75*
G02*
X131475000Y-91050000I250000J0D01*
G01*
X132225000Y-91050000D01*
G75*
G02*
X132475000Y-91300000I0J-250000D01*
G01*
G37*
G36*
G01*
X135275000Y-91300000D02*
X135275000Y-92550000D01*
G75*
G02*
X135025000Y-92800000I-250000J0D01*
G01*
X134275000Y-92800000D01*
G75*
G02*
X134025000Y-92550000I0J250000D01*
G01*
X134025000Y-91300000D01*
G75*
G02*
X134275000Y-91050000I250000J0D01*
G01*
X135025000Y-91050000D01*
G75*
G02*
X135275000Y-91300000I0J-250000D01*
G01*
G37*
%TD*%
D36*
%TO.C,J2*%
X81525000Y-91970000D03*
X81525000Y-89430000D03*
X81525000Y-86890000D03*
X81525000Y-84350000D03*
%TD*%
D28*
%TO.C,D6*%
X144675000Y-68775000D03*
X145425000Y-65675000D03*
%TD*%
%TO.C,D5*%
X138050000Y-68825000D03*
X138800000Y-65725000D03*
%TD*%
%TO.C,D3*%
X124525000Y-68875000D03*
X125275000Y-65775000D03*
%TD*%
%TO.C,D2*%
G36*
G01*
X162875000Y-130600000D02*
X162875000Y-131850000D01*
G75*
G02*
X162625000Y-132100000I-250000J0D01*
G01*
X161875000Y-132100000D01*
G75*
G02*
X161625000Y-131850000I0J250000D01*
G01*
X161625000Y-130600000D01*
G75*
G02*
X161875000Y-130350000I250000J0D01*
G01*
X162625000Y-130350000D01*
G75*
G02*
X162875000Y-130600000I0J-250000D01*
G01*
G37*
G36*
G01*
X165675000Y-130600000D02*
X165675000Y-131850000D01*
G75*
G02*
X165425000Y-132100000I-250000J0D01*
G01*
X164675000Y-132100000D01*
G75*
G02*
X164425000Y-131850000I0J250000D01*
G01*
X164425000Y-130600000D01*
G75*
G02*
X164675000Y-130350000I250000J0D01*
G01*
X165425000Y-130350000D01*
G75*
G02*
X165675000Y-130600000I0J-250000D01*
G01*
G37*
%TD*%
%TO.C,D1*%
G36*
G01*
X132200000Y-87400000D02*
X132200000Y-88650000D01*
G75*
G02*
X131950000Y-88900000I-250000J0D01*
G01*
X131200000Y-88900000D01*
G75*
G02*
X130950000Y-88650000I0J250000D01*
G01*
X130950000Y-87400000D01*
G75*
G02*
X131200000Y-87150000I250000J0D01*
G01*
X131950000Y-87150000D01*
G75*
G02*
X132200000Y-87400000I0J-250000D01*
G01*
G37*
G36*
G01*
X135000000Y-87400000D02*
X135000000Y-88650000D01*
G75*
G02*
X134750000Y-88900000I-250000J0D01*
G01*
X134000000Y-88900000D01*
G75*
G02*
X133750000Y-88650000I0J250000D01*
G01*
X133750000Y-87400000D01*
G75*
G02*
X134000000Y-87150000I250000J0D01*
G01*
X134750000Y-87150000D01*
G75*
G02*
X135000000Y-87400000I0J-250000D01*
G01*
G37*
%TD*%
%TO.C,C3*%
G36*
G01*
X147781250Y-136475000D02*
X146868750Y-136475000D01*
G75*
G02*
X146625000Y-136231250I0J243750D01*
G01*
X146625000Y-135743750D01*
G75*
G02*
X146868750Y-135500000I243750J0D01*
G01*
X147781250Y-135500000D01*
G75*
G02*
X148025000Y-135743750I0J-243750D01*
G01*
X148025000Y-136231250D01*
G75*
G02*
X147781250Y-136475000I-243750J0D01*
G01*
G37*
G36*
G01*
X147781250Y-138350000D02*
X146868750Y-138350000D01*
G75*
G02*
X146625000Y-138106250I0J243750D01*
G01*
X146625000Y-137618750D01*
G75*
G02*
X146868750Y-137375000I243750J0D01*
G01*
X147781250Y-137375000D01*
G75*
G02*
X148025000Y-137618750I0J-243750D01*
G01*
X148025000Y-138106250D01*
G75*
G02*
X147781250Y-138350000I-243750J0D01*
G01*
G37*
%TD*%
%TO.C,C2*%
G36*
G01*
X145625000Y-130118750D02*
X145625000Y-131031250D01*
G75*
G02*
X145381250Y-131275000I-243750J0D01*
G01*
X144893750Y-131275000D01*
G75*
G02*
X144650000Y-131031250I0J243750D01*
G01*
X144650000Y-130118750D01*
G75*
G02*
X144893750Y-129875000I243750J0D01*
G01*
X145381250Y-129875000D01*
G75*
G02*
X145625000Y-130118750I0J-243750D01*
G01*
G37*
G36*
G01*
X147500000Y-130118750D02*
X147500000Y-131031250D01*
G75*
G02*
X147256250Y-131275000I-243750J0D01*
G01*
X146768750Y-131275000D01*
G75*
G02*
X146525000Y-131031250I0J243750D01*
G01*
X146525000Y-130118750D01*
G75*
G02*
X146768750Y-129875000I243750J0D01*
G01*
X147256250Y-129875000D01*
G75*
G02*
X147500000Y-130118750I0J-243750D01*
G01*
G37*
%TD*%
%TO.C,C1*%
G36*
G01*
X132775000Y-96468750D02*
X132775000Y-97381250D01*
G75*
G02*
X132531250Y-97625000I-243750J0D01*
G01*
X132043750Y-97625000D01*
G75*
G02*
X131800000Y-97381250I0J243750D01*
G01*
X131800000Y-96468750D01*
G75*
G02*
X132043750Y-96225000I243750J0D01*
G01*
X132531250Y-96225000D01*
G75*
G02*
X132775000Y-96468750I0J-243750D01*
G01*
G37*
G36*
G01*
X134650000Y-96468750D02*
X134650000Y-97381250D01*
G75*
G02*
X134406250Y-97625000I-243750J0D01*
G01*
X133918750Y-97625000D01*
G75*
G02*
X133675000Y-97381250I0J243750D01*
G01*
X133675000Y-96468750D01*
G75*
G02*
X133918750Y-96225000I243750J0D01*
G01*
X134406250Y-96225000D01*
G75*
G02*
X134650000Y-96468750I0J-243750D01*
G01*
G37*
%TD*%
M02*
