M48
; DRILL file {KiCad (6.0.0)} date Thu Dec 30 12:50:36 2021
; FORMAT={-:-/ absolute / inch / decimal}
; #@! TF.CreationDate,2021-12-30T12:50:36-06:00
; #@! TF.GenerationSoftware,Kicad,Pcbnew,(6.0.0)
; #@! TF.FileFunction,Plated,1,2,PTH
FMAT,2
INCH
; #@! TA.AperFunction,Plated,PTH,ViaDrill
T1C0.0157
; #@! TA.AperFunction,Plated,PTH,ComponentDrill
T2C0.0217
; #@! TA.AperFunction,Plated,PTH,ComponentDrill
T3C0.0335
; #@! TA.AperFunction,Plated,PTH,ComponentDrill
T4C0.0394
; #@! TA.AperFunction,Plated,PTH,ComponentDrill
T5C0.0400
; #@! TA.AperFunction,Plated,PTH,ComponentDrill
T6C0.0402
; #@! TA.AperFunction,Plated,PTH,ComponentDrill
T7C0.1969
%
G90
G05
T1
X3.2992Y-4.2717
X3.315Y-5.0856
X3.4911Y-4.1033
X3.6781Y-5.0679
X3.6939Y-4.6604
X3.6969Y-5.4862
X3.9213Y-3.6289
X3.9252Y-3.688
X3.9262Y-3.747
X3.9281Y-3.8061
X3.9281Y-3.8652
X3.9311Y-3.9242
X3.9368Y-3.334
X3.938Y-3.2736
X3.9656Y-3.1565
X3.9675Y-3.2156
X4.0906Y-5.0837
X4.1417Y-3.0236
X4.2707Y-3.4793
X4.2717Y-3.1703
X4.2953Y-4.7726
X4.3169Y-3.562
X4.3376Y-4.6575
X4.3533Y-3.6191
X4.3878Y-3.6516
X4.3907Y-4.8169
X4.4232Y-3.7008
X4.4232Y-4.7283
X4.4547Y-3.7402
X4.4547Y-4.8465
X4.51Y-4.0323
X4.569Y-4.0304
X4.5896Y-3.1693
X4.6283Y-4.0292
X4.6869Y-4.0292
X4.69Y-3.5738
X4.6949Y-3.5157
X4.8455Y-3.7461
X4.8455Y-3.8061
X4.8465Y-3.8661
X4.8474Y-3.9232
X4.8573Y-3.0994
X4.876Y-3.6289
X4.8799Y-3.688
X4.8829Y-3.3789
X4.8878Y-3.2815
X4.8937Y-3.1565
X4.8957Y-3.5374
X4.8967Y-3.2156
X4.9478Y-3.1535
X4.9587Y-3.0472
X5.0689Y-3.7126
X5.1073Y-5.1064
X5.1079Y-5.2473
X5.2402Y-2.377
X5.2579Y-3.0472
X5.4754Y-3.7421
X5.5531Y-3.8022
X5.6348Y-3.8622
X5.6369Y-5.2104
X5.7106Y-3.9203
X5.752Y-5.2558
X5.8563Y-5.2707
X5.9685Y-5.2264
X6.0433Y-5.2254
X6.127Y-5.4065
X6.4606Y-2.5738
T4
X4.8975Y-5.1767
X4.8975Y-5.2767
X4.8995Y-5.4565
X4.8995Y-5.5565
X6.1429Y-1.9727
X6.1429Y-2.0727
T5
X5.2402Y-2.0432
X5.2402Y-2.1432
X5.3402Y-2.0432
X5.3402Y-2.1432
X5.4402Y-2.0432
X5.4402Y-2.1432
T6
X3.2096Y-3.3209
X3.2096Y-3.4209
X3.2096Y-3.5209
X3.2096Y-3.6209
T2
G00X4.4026Y-5.6821
M15
G01X4.4026Y-5.6565
M16
G05
G00X4.7077Y-5.6821
M15
G01X4.7077Y-5.6565
M16
G05
T3
G00X4.4085Y-5.5305
M15
G01X4.4085Y-5.5089
M16
G05
G00X4.7018Y-5.5305
M15
G01X4.7018Y-5.5089
M16
G05
T7
G00X3.0034Y-1.9881
M15
G01X3.279Y-1.9881
M16
G05
G00X6.3317Y-1.9852
M15
G01X6.6073Y-1.9852
M16
G05
T0
M30
