%TF.GenerationSoftware,KiCad,Pcbnew,(6.0.0)*%
%TF.CreationDate,2021-12-30T12:50:52-06:00*%
%TF.ProjectId,ProspectBoards,50726f73-7065-4637-9442-6f617264732e,1.3*%
%TF.SameCoordinates,Original*%
%TF.FileFunction,Copper,L1,Top*%
%TF.FilePolarity,Positive*%
%FSLAX46Y46*%
G04 Gerber Fmt 4.6, Leading zero omitted, Abs format (unit mm)*
G04 Created by KiCad (PCBNEW (6.0.0)) date 2021-12-30 12:50:52*
%MOMM*%
%LPD*%
G01*
G04 APERTURE LIST*
G04 Aperture macros list*
%AMRoundRect*
0 Rectangle with rounded corners*
0 $1 Rounding radius*
0 $2 $3 $4 $5 $6 $7 $8 $9 X,Y pos of 4 corners*
0 Add a 4 corners polygon primitive as box body*
4,1,4,$2,$3,$4,$5,$6,$7,$8,$9,$2,$3,0*
0 Add four circle primitives for the rounded corners*
1,1,$1+$1,$2,$3*
1,1,$1+$1,$4,$5*
1,1,$1+$1,$6,$7*
1,1,$1+$1,$8,$9*
0 Add four rect primitives between the rounded corners*
20,1,$1+$1,$2,$3,$4,$5,0*
20,1,$1+$1,$4,$5,$6,$7,0*
20,1,$1+$1,$6,$7,$8,$9,0*
20,1,$1+$1,$8,$9,$2,$3,0*%
G04 Aperture macros list end*
%TA.AperFunction,ComponentPad*%
%ADD10R,1.700000X1.700000*%
%TD*%
%TA.AperFunction,ComponentPad*%
%ADD11O,1.700000X1.700000*%
%TD*%
%TA.AperFunction,SMDPad,CuDef*%
%ADD12R,1.500000X1.000000*%
%TD*%
%TA.AperFunction,ComponentPad*%
%ADD13O,12.500000X5.500000*%
%TD*%
%TA.AperFunction,SMDPad,CuDef*%
%ADD14RoundRect,2.500000X-2.500000X2.500000X-2.500000X-2.500000X2.500000X-2.500000X2.500000X2.500000X0*%
%TD*%
%TA.AperFunction,SMDPad,CuDef*%
%ADD15RoundRect,2.500000X2.500000X-2.500000X2.500000X2.500000X-2.500000X2.500000X-2.500000X-2.500000X0*%
%TD*%
%TA.AperFunction,SMDPad,CuDef*%
%ADD16RoundRect,2.500000X2.500000X2.500000X-2.500000X2.500000X-2.500000X-2.500000X2.500000X-2.500000X0*%
%TD*%
%TA.AperFunction,SMDPad,CuDef*%
%ADD17RoundRect,2.500000X-2.500000X-2.500000X2.500000X-2.500000X2.500000X2.500000X-2.500000X2.500000X0*%
%TD*%
%TA.AperFunction,ComponentPad*%
%ADD18O,1.150000X1.800000*%
%TD*%
%TA.AperFunction,ComponentPad*%
%ADD19O,1.450000X2.000000*%
%TD*%
%TA.AperFunction,ComponentPad*%
%ADD20C,1.727200*%
%TD*%
%TA.AperFunction,ComponentPad*%
%ADD21O,1.727200X1.727200*%
%TD*%
%TA.AperFunction,ComponentPad*%
%ADD22R,1.727200X1.727200*%
%TD*%
%TA.AperFunction,ComponentPad*%
%ADD23C,2.020000*%
%TD*%
%TA.AperFunction,ViaPad*%
%ADD24C,0.800000*%
%TD*%
%TA.AperFunction,Conductor*%
%ADD25C,0.250000*%
%TD*%
G04 APERTURE END LIST*
D10*
%TO.P,J1,1*%
%TO.N,GND*%
X156029660Y-50106580D03*
D11*
%TO.P,J1,2*%
%TO.N,Boot*%
X156029660Y-52646580D03*
%TD*%
D12*
%TO.P,D7,6*%
%TO.N,GND*%
X167000000Y-62025000D03*
%TO.P,D7,5*%
%TO.N,Net-(D7-Pad5)*%
X167000000Y-63625000D03*
%TO.P,D7,4*%
%TO.N,N/C*%
X167000000Y-65225000D03*
%TO.P,D7,3*%
%TO.N,VCC*%
X162100000Y-65225000D03*
%TO.P,D7,2*%
%TO.N,IO14*%
X162100000Y-63625000D03*
%TO.P,D7,1*%
%TO.N,Net-(D7-Pad1)*%
X162100000Y-62025000D03*
%TD*%
D13*
%TO.P,REF\u002A\u002A,4*%
%TO.N,N/C*%
X164325000Y-50425000D03*
%TD*%
D14*
%TO.P,TP5,4*%
%TO.N,IO05*%
X103950000Y-129125000D03*
%TD*%
D15*
%TO.P,TP4,2*%
%TO.N,IO04*%
X82323800Y-128949200D03*
%TD*%
D16*
%TO.P,TP3,5*%
%TO.N,IO03*%
X93099200Y-139601200D03*
%TD*%
D17*
%TO.P,TP2,1*%
%TO.N,IO07*%
X93325000Y-118425000D03*
%TD*%
%TO.P,TP1,3*%
%TO.N,IO06*%
X93175000Y-129075000D03*
%TD*%
D10*
%TO.P,J5,1*%
%TO.N,VBUS*%
X124447300Y-138595100D03*
D11*
%TO.P,J5,2*%
%TO.N,GND*%
X124447300Y-141135100D03*
%TD*%
D10*
%TO.P,J4,1*%
%TO.N,D-*%
X124396500Y-134028180D03*
D11*
%TO.P,J4,2*%
%TO.N,D+*%
X124396500Y-131488180D03*
%TD*%
D13*
%TO.P,REF\u002A\u002A,4*%
%TO.N,N/C*%
X79786480Y-50497740D03*
%TD*%
D18*
%TO.P,J3,6*%
%TO.N,Net-(J3-Pad6)*%
X111825000Y-144000000D03*
X119575000Y-144000000D03*
D19*
X111975000Y-140200000D03*
X119425000Y-140200000D03*
%TD*%
D20*
%TO.P,X1,5*%
%TO.N,IO01*%
X138180200Y-51898400D03*
%TO.P,X1,6*%
%TO.N,IO02*%
X138180200Y-54438400D03*
D21*
%TO.P,X1,3*%
%TO.N,IO08*%
X135640200Y-51898400D03*
%TO.P,X1,4*%
%TO.N,IO09*%
X135640200Y-54438400D03*
%TO.P,X1,1*%
%TO.N,VCC*%
X133100200Y-51898400D03*
D22*
%TO.P,X1,2*%
%TO.N,GND*%
X133100200Y-54438400D03*
%TD*%
D23*
%TO.P,J2,4*%
%TO.N,IO39*%
X81525000Y-91970000D03*
%TO.P,J2,3*%
%TO.N,IO40*%
X81525000Y-89430000D03*
%TO.P,J2,2*%
%TO.N,IO41*%
X81525000Y-86890000D03*
%TO.P,J2,1*%
%TO.N,IO42*%
X81525000Y-84350000D03*
%TD*%
D24*
%TO.N,GND*%
X105200000Y-76800000D03*
X108500000Y-80525000D03*
X116575000Y-80500000D03*
X108475000Y-88375000D03*
X133100200Y-60374800D03*
X124150000Y-83350000D03*
X124025000Y-85825000D03*
X125675000Y-80100000D03*
X143177260Y-132344160D03*
X146100800Y-133497320D03*
X129740660Y-133281420D03*
X129725420Y-129702560D03*
%TO.N,VCC*%
X133550000Y-77400000D03*
X123375000Y-78725000D03*
X125950000Y-77400000D03*
X164100000Y-65375000D03*
%TO.N,VBUS*%
X148750000Y-133875000D03*
X151600000Y-132750000D03*
%TO.N,IO10*%
X139075000Y-95050000D03*
X123075000Y-95150004D03*
%TO.N,IO11*%
X141050000Y-96575000D03*
X123075000Y-96675000D03*
%TO.N,IO12*%
X143125000Y-98100000D03*
X123100000Y-98200000D03*
%TO.N,IO13*%
X145050000Y-99575000D03*
X123124991Y-99650009D03*
%TO.N,Boot*%
X124300000Y-80175000D03*
X124350000Y-89850000D03*
X128750000Y-94300000D03*
%TO.N,Net-(R2-Pad1)*%
X153500000Y-132725000D03*
X155625000Y-137325000D03*
%TO.N,IO01*%
X124375000Y-81675000D03*
%TO.N,IO03*%
X111450000Y-92750000D03*
X93900000Y-139350000D03*
X111525000Y-122350000D03*
%TO.N,IO04*%
X112350000Y-94000000D03*
X112350000Y-120100000D03*
X84200000Y-129175000D03*
%TO.N,IO05*%
X113150000Y-95000000D03*
X113150000Y-123100000D03*
X103900000Y-129125000D03*
%TO.N,IO14*%
X119047260Y-102341680D03*
%TO.N,IO06*%
X119250000Y-89300000D03*
X109650000Y-90475000D03*
X93425000Y-128725000D03*
X109100000Y-121225000D03*
%TO.N,IO07*%
X119125000Y-90775000D03*
X110575000Y-91925000D03*
X93825000Y-118375000D03*
X110175000Y-118300000D03*
%TO.N,IO08*%
X123850000Y-92175000D03*
%TO.N,IO09*%
X123950000Y-93675000D03*
%TO.N,USB_TX_ESP_RX*%
X83800000Y-108500000D03*
X100025000Y-83150000D03*
%TO.N,USB_RX_ESP_TX*%
X88675000Y-104225000D03*
X99994720Y-84683600D03*
%TO.N,Net-(U2-Pad40)*%
X100725000Y-80175000D03*
%TO.N,Net-(U2-Pad39)*%
X100775000Y-81675000D03*
%TO.N,Net-(U2-Pad32)*%
X99600000Y-92175000D03*
%TO.N,Net-(U2-Pad31)*%
X99700000Y-93675000D03*
%TO.N,Net-(U2-Pad30)*%
X99725000Y-95175000D03*
%TO.N,Net-(U2-Pad29)*%
X99775000Y-96675000D03*
%TO.N,Net-(U2-Pad28)*%
X99775000Y-98175000D03*
%TO.N,Net-(U2-Pad27)*%
X99850000Y-99675000D03*
%TO.N,Net-(U2-Pad20)*%
X114554000Y-102420420D03*
%TO.N,Net-(U2-Pad19)*%
X116052600Y-102372160D03*
%TO.N,Net-(U2-Pad18)*%
X117558820Y-102341680D03*
%TD*%
D25*
%TO.N,GND*%
X108500000Y-80100000D02*
X108500000Y-80525000D01*
X105200000Y-76800000D02*
X108500000Y-80100000D01*
X133100200Y-54438400D02*
X133100200Y-60374800D01*
X124150000Y-85700000D02*
X124025000Y-85825000D01*
X124150000Y-83350000D02*
X124150000Y-85700000D01*
X144947640Y-132344160D02*
X146100800Y-133497320D01*
X143177260Y-132344160D02*
X144947640Y-132344160D01*
X129740660Y-129717800D02*
X129725420Y-129702560D01*
X129740660Y-133281420D02*
X129740660Y-129717800D01*
X156029660Y-50106580D02*
X167000000Y-62025000D01*
%TO.N,VCC*%
X123300000Y-78650000D02*
X123375000Y-78725000D01*
X133550000Y-77400000D02*
X125950000Y-77400000D01*
X125950000Y-77400000D02*
X123375000Y-78725000D01*
X162250000Y-65375000D02*
X162100000Y-65225000D01*
X164100000Y-65375000D02*
X162250000Y-65375000D01*
%TO.N,VBUS*%
X148750000Y-133875000D02*
X150475000Y-133875000D01*
X150475000Y-133875000D02*
X151600000Y-132750000D01*
%TO.N,IO10*%
X139075000Y-95050000D02*
X124375000Y-95050000D01*
X124375000Y-95050000D02*
X123175004Y-95050000D01*
X123175004Y-95050000D02*
X123075000Y-95150004D01*
%TO.N,IO11*%
X141050000Y-96575000D02*
X140975000Y-96650000D01*
X140975000Y-96650000D02*
X123175000Y-96650000D01*
%TO.N,IO12*%
X143075000Y-98150000D02*
X123425000Y-98150000D01*
X143125000Y-98100000D02*
X143075000Y-98150000D01*
%TO.N,IO13*%
X145050000Y-99575000D02*
X123200000Y-99575000D01*
X123200000Y-99575000D02*
X123124991Y-99650009D01*
%TO.N,Boot*%
X125100001Y-80975001D02*
X125100001Y-89099999D01*
X124300000Y-80175000D02*
X125100001Y-80975001D01*
X125100001Y-89099999D02*
X124350000Y-89850000D01*
X124350000Y-89850000D02*
X124350000Y-89850000D01*
X146650000Y-94300000D02*
X146575000Y-71700000D01*
X128750000Y-94300000D02*
X146650000Y-94300000D01*
X146575000Y-62101240D02*
X156029660Y-52646580D01*
X146575000Y-71700000D02*
X146575000Y-62101240D01*
%TO.N,Net-(R2-Pad1)*%
X153500000Y-132725000D02*
X153500000Y-135200000D01*
X153500000Y-135200000D02*
X155625000Y-137325000D01*
%TO.N,IO01*%
X136991599Y-50709799D02*
X138180200Y-51898400D01*
X132529671Y-50709799D02*
X136991599Y-50709799D01*
X122649999Y-60589471D02*
X132529671Y-50709799D01*
X122649999Y-79949999D02*
X122649999Y-60589471D01*
X124375000Y-81675000D02*
X122649999Y-79949999D01*
%TO.N,IO03*%
X111425000Y-92775000D02*
X111450000Y-92750000D01*
X111544100Y-118610380D02*
X111425000Y-92775000D01*
X111525000Y-122350000D02*
X111544100Y-118610380D01*
%TO.N,IO04*%
X112350000Y-94000000D02*
X112350000Y-118196412D01*
X112350000Y-118196412D02*
X112350000Y-120100000D01*
X112350000Y-120100000D02*
X112350000Y-120100000D01*
%TO.N,IO05*%
X113150000Y-117975000D02*
X113150000Y-118032822D01*
X113150000Y-95000000D02*
X113150000Y-117975000D01*
X113150000Y-123100000D02*
X113150000Y-123100000D01*
X113150000Y-123100000D02*
X113150000Y-117975000D01*
%TO.N,IO14*%
X159825000Y-63600000D02*
X162100000Y-63625000D01*
X148450000Y-63625000D02*
X159825000Y-63600000D01*
X148597501Y-102341680D02*
X148450000Y-63625000D01*
X119047260Y-102341680D02*
X148597501Y-102341680D01*
%TO.N,IO06*%
X109650000Y-90475000D02*
X109650000Y-90475000D01*
X118075000Y-90475000D02*
X119250000Y-89300000D01*
X109650000Y-90475000D02*
X118075000Y-90475000D01*
X109100000Y-121225000D02*
X109650000Y-90475000D01*
%TO.N,IO07*%
X110575000Y-91925000D02*
X110575000Y-91925000D01*
X118974990Y-90925010D02*
X119125000Y-90775000D01*
X118049990Y-90925010D02*
X118974990Y-90925010D01*
X117050000Y-91925000D02*
X118049990Y-90925010D01*
X110575000Y-91925000D02*
X117050000Y-91925000D01*
X110575000Y-91925000D02*
X110175000Y-118300000D01*
%TO.N,IO08*%
X134451599Y-53087001D02*
X135640200Y-51898400D01*
X134451599Y-78476599D02*
X134451599Y-53087001D01*
X134625000Y-81625000D02*
X134451599Y-78476599D01*
X123850000Y-92175000D02*
X134625000Y-81625000D01*
%TO.N,IO09*%
X139368801Y-58167001D02*
X135640200Y-54438400D01*
X139368801Y-78256199D02*
X139368801Y-58167001D01*
X123950000Y-93675000D02*
X139368801Y-78256199D01*
%TO.N,USB_TX_ESP_RX*%
X83800000Y-108500000D02*
X83800000Y-91600000D01*
X92250000Y-83150000D02*
X100025000Y-83150000D01*
X83800000Y-91600000D02*
X92250000Y-83150000D01*
%TO.N,USB_RX_ESP_TX*%
X88675000Y-88075000D02*
X88675000Y-104225000D01*
X92050000Y-84700000D02*
X88675000Y-88075000D01*
X99994720Y-84683600D02*
X92050000Y-84700000D01*
%TD*%
M02*
