%TF.GenerationSoftware,KiCad,Pcbnew,(6.0.0)*%
%TF.CreationDate,2021-12-30T12:50:52-06:00*%
%TF.ProjectId,ProspectBoards,50726f73-7065-4637-9442-6f617264732e,1.3*%
%TF.SameCoordinates,Original*%
%TF.FileFunction,Legend,Top*%
%TF.FilePolarity,Positive*%
%FSLAX46Y46*%
G04 Gerber Fmt 4.6, Leading zero omitted, Abs format (unit mm)*
G04 Created by KiCad (PCBNEW (6.0.0)) date 2021-12-30 12:50:52*
%MOMM*%
%LPD*%
G01*
G04 APERTURE LIST*
%ADD10C,0.150000*%
%ADD11C,0.120000*%
%ADD12C,1.000000*%
%ADD13C,0.500000*%
%ADD14C,0.127000*%
%ADD15C,0.200000*%
G04 APERTURE END LIST*
D10*
X191604493Y-91455856D02*
X191605514Y-91646330D01*
X191653643Y-91741311D01*
X191701516Y-91788675D01*
X191844882Y-91883146D01*
X192035610Y-91929743D01*
X192416557Y-91927702D01*
X192511539Y-91879573D01*
X192558902Y-91831699D01*
X192606010Y-91736207D01*
X192604989Y-91545734D01*
X192556860Y-91450752D01*
X192508987Y-91403389D01*
X192413495Y-91356281D01*
X192175403Y-91357557D01*
X192080421Y-91405686D01*
X192033058Y-91453560D01*
X191985950Y-91549051D01*
X191986971Y-91739525D01*
X192035100Y-91834506D01*
X192082974Y-91881870D01*
X192178465Y-91928978D01*
X191609597Y-92408224D02*
X191610618Y-92598697D01*
X191658747Y-92693679D01*
X191706620Y-92741042D01*
X191849986Y-92835513D01*
X192040715Y-92882110D01*
X192421662Y-92880069D01*
X192516643Y-92831940D01*
X192564006Y-92784066D01*
X192611114Y-92688574D01*
X192610093Y-92498101D01*
X192561965Y-92403120D01*
X192514091Y-92355756D01*
X192418599Y-92308648D01*
X192180507Y-92309924D01*
X192085526Y-92358053D01*
X192038163Y-92405927D01*
X191991055Y-92501419D01*
X191992075Y-92691892D01*
X192040204Y-92786874D01*
X192088078Y-92834237D01*
X192183570Y-92881345D01*
X191709683Y-93312462D02*
X191662320Y-93360336D01*
X191614446Y-93312973D01*
X191661809Y-93265099D01*
X191709683Y-93312462D01*
X191614446Y-93312973D01*
X192616474Y-93688560D02*
X192620047Y-94355217D01*
X191617764Y-93932011D01*
X191624910Y-95265326D02*
X191621847Y-94693905D01*
X191623379Y-94979615D02*
X192623364Y-94974256D01*
X192479999Y-94879785D01*
X192384252Y-94785059D01*
X192336123Y-94690077D01*
X192626682Y-95593295D02*
X192630255Y-96259952D01*
X191627972Y-95836746D01*
X192633317Y-96831372D02*
X192633828Y-96926609D01*
X192586720Y-97022101D01*
X192539357Y-97069974D01*
X192444375Y-97118103D01*
X192254157Y-97166742D01*
X192016065Y-97168018D01*
X191825337Y-97121421D01*
X191729845Y-97074313D01*
X191681971Y-97026950D01*
X191633842Y-96931968D01*
X191633332Y-96836732D01*
X191680440Y-96741240D01*
X191727803Y-96693366D01*
X191822784Y-96645237D01*
X192013003Y-96596598D01*
X192251095Y-96595322D01*
X192441823Y-96641920D01*
X192537315Y-96689027D01*
X192585189Y-96736391D01*
X192633317Y-96831372D01*
X191641499Y-98360519D02*
X192308156Y-98356946D01*
X192212919Y-98357457D02*
X192260793Y-98404820D01*
X192308921Y-98499801D01*
X192309687Y-98642656D01*
X192262579Y-98738148D01*
X192167597Y-98786277D01*
X191643795Y-98789084D01*
X192167597Y-98786277D02*
X192263089Y-98833385D01*
X192311218Y-98928367D01*
X192311984Y-99071222D01*
X192264876Y-99166714D01*
X192169894Y-99214842D01*
X191646092Y-99217650D01*
X191648644Y-99693833D02*
X192315302Y-99690260D01*
X192220065Y-99690771D02*
X192267938Y-99738134D01*
X192316067Y-99833116D01*
X192316833Y-99975971D01*
X192269725Y-100071463D01*
X192174743Y-100119591D01*
X191650941Y-100122399D01*
X192174743Y-100119591D02*
X192270235Y-100166699D01*
X192318364Y-100261681D01*
X192319130Y-100404536D01*
X192272022Y-100500028D01*
X192177040Y-100548157D01*
X191653238Y-100550964D01*
D11*
X170884426Y-145950000D02*
X191784755Y-145837985D01*
X170350000Y-46234426D02*
X191250329Y-46122411D01*
X191198343Y-145841127D02*
X190959988Y-101367787D01*
X190902272Y-90598893D02*
X190663917Y-46125553D01*
X191198343Y-145841127D02*
X191778718Y-144711497D01*
X191198343Y-145841127D02*
X190605893Y-144717782D01*
X190663917Y-46125553D02*
X190083542Y-47255183D01*
X190663917Y-46125553D02*
X191256367Y-47248898D01*
D10*
X117579741Y-33663747D02*
X117770217Y-33663795D01*
X117865467Y-33616200D01*
X117913098Y-33568593D01*
X118008372Y-33425759D01*
X118056039Y-33235295D01*
X118056134Y-32854343D01*
X118008539Y-32759093D01*
X117960932Y-32711462D01*
X117865706Y-32663819D01*
X117675229Y-32663771D01*
X117579979Y-32711366D01*
X117532348Y-32758973D01*
X117484705Y-32854200D01*
X117484646Y-33092295D01*
X117532241Y-33187545D01*
X117579848Y-33235176D01*
X117675074Y-33282819D01*
X117865551Y-33282866D01*
X117960801Y-33235271D01*
X118008431Y-33187664D01*
X118056074Y-33092438D01*
X118532122Y-33663986D02*
X118722598Y-33664034D01*
X118817848Y-33616438D01*
X118865479Y-33568831D01*
X118960753Y-33425998D01*
X119008420Y-33235534D01*
X119008515Y-32854581D01*
X118960920Y-32759331D01*
X118913313Y-32711700D01*
X118818086Y-32664057D01*
X118627610Y-32664010D01*
X118532360Y-32711605D01*
X118484729Y-32759212D01*
X118437086Y-32854438D01*
X118437027Y-33092533D01*
X118484622Y-33187783D01*
X118532229Y-33235414D01*
X118627455Y-33283057D01*
X118817931Y-33283105D01*
X118913181Y-33235510D01*
X118960812Y-33187903D01*
X119008455Y-33092677D01*
X119436907Y-33568974D02*
X119484515Y-33616605D01*
X119436884Y-33664212D01*
X119389276Y-33616581D01*
X119436907Y-33568974D01*
X119436884Y-33664212D01*
X120056074Y-33092939D02*
X119960848Y-33045296D01*
X119913241Y-32997665D01*
X119865646Y-32902415D01*
X119865658Y-32854796D01*
X119913301Y-32759570D01*
X119960932Y-32711963D01*
X120056182Y-32664368D01*
X120246658Y-32664415D01*
X120341884Y-32712058D01*
X120389491Y-32759689D01*
X120437086Y-32854939D01*
X120437074Y-32902558D01*
X120389432Y-32997784D01*
X120341801Y-33045391D01*
X120246551Y-33092987D01*
X120056074Y-33092939D01*
X119960824Y-33140534D01*
X119913193Y-33188141D01*
X119865550Y-33283367D01*
X119865503Y-33473844D01*
X119913098Y-33569094D01*
X119960705Y-33616725D01*
X120055931Y-33664368D01*
X120246407Y-33664415D01*
X120341657Y-33616820D01*
X120389288Y-33569213D01*
X120436931Y-33473987D01*
X120436979Y-33283511D01*
X120389384Y-33188261D01*
X120341777Y-33140630D01*
X120246551Y-33092987D01*
X121056182Y-32664618D02*
X121151420Y-32664642D01*
X121246646Y-32712285D01*
X121294253Y-32759916D01*
X121341848Y-32855166D01*
X121389420Y-33045654D01*
X121389360Y-33283749D01*
X121341693Y-33474213D01*
X121294050Y-33569440D01*
X121246419Y-33617047D01*
X121151169Y-33664642D01*
X121055931Y-33664618D01*
X120960705Y-33616975D01*
X120913098Y-33569344D01*
X120865503Y-33474094D01*
X120817931Y-33283606D01*
X120817991Y-33045511D01*
X120865658Y-32855047D01*
X120913301Y-32759820D01*
X120960932Y-32712213D01*
X121056182Y-32664618D01*
X122008563Y-32664857D02*
X122103801Y-32664880D01*
X122199027Y-32712523D01*
X122246634Y-32760154D01*
X122294229Y-32855404D01*
X122341800Y-33045892D01*
X122341741Y-33283988D01*
X122294074Y-33474452D01*
X122246431Y-33569678D01*
X122198800Y-33617285D01*
X122103550Y-33664880D01*
X122008312Y-33664857D01*
X121913086Y-33617214D01*
X121865479Y-33569583D01*
X121817884Y-33474333D01*
X121770312Y-33283845D01*
X121770372Y-33045749D01*
X121818039Y-32855285D01*
X121865682Y-32760059D01*
X121913313Y-32712452D01*
X122008563Y-32664857D01*
X122960944Y-32665095D02*
X123056182Y-32665119D01*
X123151408Y-32712762D01*
X123199015Y-32760393D01*
X123246610Y-32855643D01*
X123294181Y-33046131D01*
X123294122Y-33284226D01*
X123246455Y-33474691D01*
X123198812Y-33569917D01*
X123151181Y-33617524D01*
X123055931Y-33665119D01*
X122960693Y-33665095D01*
X122865467Y-33617452D01*
X122817860Y-33569821D01*
X122770265Y-33474571D01*
X122722693Y-33284083D01*
X122722753Y-33045988D01*
X122770420Y-32855524D01*
X122818063Y-32760297D01*
X122865693Y-32712690D01*
X122960944Y-32665095D01*
X124484502Y-33665477D02*
X124484669Y-32998810D01*
X124484646Y-33094048D02*
X124532277Y-33046441D01*
X124627527Y-32998846D01*
X124770384Y-32998882D01*
X124865610Y-33046525D01*
X124913205Y-33141775D01*
X124913074Y-33665584D01*
X124913205Y-33141775D02*
X124960848Y-33046549D01*
X125056098Y-32998953D01*
X125198955Y-32998989D01*
X125294181Y-33046632D01*
X125341777Y-33141882D01*
X125341645Y-33665692D01*
X125817836Y-33665811D02*
X125818003Y-32999144D01*
X125817979Y-33094382D02*
X125865610Y-33046775D01*
X125960860Y-32999180D01*
X126103717Y-32999216D01*
X126198943Y-33046859D01*
X126246538Y-33142109D01*
X126246407Y-33665918D01*
X126246538Y-33142109D02*
X126294181Y-33046883D01*
X126389431Y-32999287D01*
X126532288Y-32999323D01*
X126627515Y-33046966D01*
X126675110Y-33142216D01*
X126674979Y-33666026D01*
D11*
X172000000Y-47850000D02*
X172003522Y-33788580D01*
X72200000Y-47825000D02*
X72203522Y-33763580D01*
X172003376Y-34375000D02*
X127487900Y-34363849D01*
X116718853Y-34361151D02*
X72203376Y-34350000D01*
X172003376Y-34375000D02*
X170877019Y-33788297D01*
X172003376Y-34375000D02*
X170876725Y-34961139D01*
X72203376Y-34350000D02*
X73329733Y-34936703D01*
X72203376Y-34350000D02*
X73330027Y-33763861D01*
D10*
X125686904Y-126747380D02*
X125686904Y-125747380D01*
X125925000Y-125747380D01*
X126067857Y-125795000D01*
X126163095Y-125890238D01*
X126210714Y-125985476D01*
X126258333Y-126175952D01*
X126258333Y-126318809D01*
X126210714Y-126509285D01*
X126163095Y-126604523D01*
X126067857Y-126699761D01*
X125925000Y-126747380D01*
X125686904Y-126747380D01*
X126686904Y-126747380D02*
X126686904Y-126080714D01*
X126686904Y-125747380D02*
X126639285Y-125795000D01*
X126686904Y-125842619D01*
X126734523Y-125795000D01*
X126686904Y-125747380D01*
X126686904Y-125842619D01*
X127020238Y-126080714D02*
X127401190Y-126080714D01*
X127163095Y-126747380D02*
X127163095Y-125890238D01*
X127210714Y-125795000D01*
X127305952Y-125747380D01*
X127401190Y-125747380D01*
X127591666Y-126080714D02*
X127972619Y-126080714D01*
X127734523Y-126747380D02*
X127734523Y-125890238D01*
X127782142Y-125795000D01*
X127877380Y-125747380D01*
X127972619Y-125747380D01*
X128686904Y-126699761D02*
X128591666Y-126747380D01*
X128401190Y-126747380D01*
X128305952Y-126699761D01*
X128258333Y-126604523D01*
X128258333Y-126223571D01*
X128305952Y-126128333D01*
X128401190Y-126080714D01*
X128591666Y-126080714D01*
X128686904Y-126128333D01*
X128734523Y-126223571D01*
X128734523Y-126318809D01*
X128258333Y-126414047D01*
X129163095Y-126747380D02*
X129163095Y-126080714D01*
X129163095Y-126271190D02*
X129210714Y-126175952D01*
X129258333Y-126128333D01*
X129353571Y-126080714D01*
X129448809Y-126080714D01*
X130163095Y-126699761D02*
X130067857Y-126747380D01*
X129877380Y-126747380D01*
X129782142Y-126699761D01*
X129734523Y-126604523D01*
X129734523Y-126223571D01*
X129782142Y-126128333D01*
X129877380Y-126080714D01*
X130067857Y-126080714D01*
X130163095Y-126128333D01*
X130210714Y-126223571D01*
X130210714Y-126318809D01*
X129734523Y-126414047D01*
X130639285Y-126080714D02*
X130639285Y-126747380D01*
X130639285Y-126175952D02*
X130686904Y-126128333D01*
X130782142Y-126080714D01*
X130925000Y-126080714D01*
X131020238Y-126128333D01*
X131067857Y-126223571D01*
X131067857Y-126747380D01*
X131401190Y-126080714D02*
X131782142Y-126080714D01*
X131544047Y-125747380D02*
X131544047Y-126604523D01*
X131591666Y-126699761D01*
X131686904Y-126747380D01*
X131782142Y-126747380D01*
X133353571Y-126747380D02*
X132877380Y-126747380D01*
X132877380Y-125747380D01*
X134115476Y-126747380D02*
X134115476Y-126223571D01*
X134067857Y-126128333D01*
X133972619Y-126080714D01*
X133782142Y-126080714D01*
X133686904Y-126128333D01*
X134115476Y-126699761D02*
X134020238Y-126747380D01*
X133782142Y-126747380D01*
X133686904Y-126699761D01*
X133639285Y-126604523D01*
X133639285Y-126509285D01*
X133686904Y-126414047D01*
X133782142Y-126366428D01*
X134020238Y-126366428D01*
X134115476Y-126318809D01*
X134591666Y-126747380D02*
X134591666Y-125747380D01*
X134591666Y-126128333D02*
X134686904Y-126080714D01*
X134877380Y-126080714D01*
X134972619Y-126128333D01*
X135020238Y-126175952D01*
X135067857Y-126271190D01*
X135067857Y-126556904D01*
X135020238Y-126652142D01*
X134972619Y-126699761D01*
X134877380Y-126747380D01*
X134686904Y-126747380D01*
X134591666Y-126699761D01*
X135877380Y-126699761D02*
X135782142Y-126747380D01*
X135591666Y-126747380D01*
X135496428Y-126699761D01*
X135448809Y-126604523D01*
X135448809Y-126223571D01*
X135496428Y-126128333D01*
X135591666Y-126080714D01*
X135782142Y-126080714D01*
X135877380Y-126128333D01*
X135925000Y-126223571D01*
X135925000Y-126318809D01*
X135448809Y-126414047D01*
X136496428Y-126747380D02*
X136401190Y-126699761D01*
X136353571Y-126604523D01*
X136353571Y-125747380D01*
X137496428Y-126080714D02*
X137877380Y-126080714D01*
X137639285Y-126747380D02*
X137639285Y-125890238D01*
X137686904Y-125795000D01*
X137782142Y-125747380D01*
X137877380Y-125747380D01*
X138353571Y-126747380D02*
X138258333Y-126699761D01*
X138210714Y-126652142D01*
X138163095Y-126556904D01*
X138163095Y-126271190D01*
X138210714Y-126175952D01*
X138258333Y-126128333D01*
X138353571Y-126080714D01*
X138496428Y-126080714D01*
X138591666Y-126128333D01*
X138639285Y-126175952D01*
X138686904Y-126271190D01*
X138686904Y-126556904D01*
X138639285Y-126652142D01*
X138591666Y-126699761D01*
X138496428Y-126747380D01*
X138353571Y-126747380D01*
X139115476Y-126747380D02*
X139115476Y-126080714D01*
X139115476Y-126271190D02*
X139163095Y-126175952D01*
X139210714Y-126128333D01*
X139305952Y-126080714D01*
X139401190Y-126080714D01*
X140496428Y-126747380D02*
X140496428Y-125747380D01*
X140734523Y-125747380D01*
X140877380Y-125795000D01*
X140972619Y-125890238D01*
X141020238Y-125985476D01*
X141067857Y-126175952D01*
X141067857Y-126318809D01*
X141020238Y-126509285D01*
X140972619Y-126604523D01*
X140877380Y-126699761D01*
X140734523Y-126747380D01*
X140496428Y-126747380D01*
X141496428Y-126747380D02*
X141496428Y-126080714D01*
X141496428Y-125747380D02*
X141448809Y-125795000D01*
X141496428Y-125842619D01*
X141544047Y-125795000D01*
X141496428Y-125747380D01*
X141496428Y-125842619D01*
X141829761Y-126080714D02*
X142210714Y-126080714D01*
X141972619Y-126747380D02*
X141972619Y-125890238D01*
X142020238Y-125795000D01*
X142115476Y-125747380D01*
X142210714Y-125747380D01*
X142401190Y-126080714D02*
X142782142Y-126080714D01*
X142544047Y-126747380D02*
X142544047Y-125890238D01*
X142591666Y-125795000D01*
X142686904Y-125747380D01*
X142782142Y-125747380D01*
X143496428Y-126699761D02*
X143401190Y-126747380D01*
X143210714Y-126747380D01*
X143115476Y-126699761D01*
X143067857Y-126604523D01*
X143067857Y-126223571D01*
X143115476Y-126128333D01*
X143210714Y-126080714D01*
X143401190Y-126080714D01*
X143496428Y-126128333D01*
X143544047Y-126223571D01*
X143544047Y-126318809D01*
X143067857Y-126414047D01*
X143972619Y-126747380D02*
X143972619Y-126080714D01*
X143972619Y-126271190D02*
X144020238Y-126175952D01*
X144067857Y-126128333D01*
X144163095Y-126080714D01*
X144258333Y-126080714D01*
X144972619Y-126699761D02*
X144877380Y-126747380D01*
X144686904Y-126747380D01*
X144591666Y-126699761D01*
X144544047Y-126604523D01*
X144544047Y-126223571D01*
X144591666Y-126128333D01*
X144686904Y-126080714D01*
X144877380Y-126080714D01*
X144972619Y-126128333D01*
X145020238Y-126223571D01*
X145020238Y-126318809D01*
X144544047Y-126414047D01*
X145448809Y-126080714D02*
X145448809Y-126747380D01*
X145448809Y-126175952D02*
X145496428Y-126128333D01*
X145591666Y-126080714D01*
X145734523Y-126080714D01*
X145829761Y-126128333D01*
X145877380Y-126223571D01*
X145877380Y-126747380D01*
X146210714Y-126080714D02*
X146591666Y-126080714D01*
X146353571Y-125747380D02*
X146353571Y-126604523D01*
X146401190Y-126699761D01*
X146496428Y-126747380D01*
X146591666Y-126747380D01*
X147686904Y-126747380D02*
X147686904Y-125747380D01*
X147686904Y-126128333D02*
X147782142Y-126080714D01*
X147972619Y-126080714D01*
X148067857Y-126128333D01*
X148115476Y-126175952D01*
X148163095Y-126271190D01*
X148163095Y-126556904D01*
X148115476Y-126652142D01*
X148067857Y-126699761D01*
X147972619Y-126747380D01*
X147782142Y-126747380D01*
X147686904Y-126699761D01*
X149020238Y-126747380D02*
X149020238Y-126223571D01*
X148972619Y-126128333D01*
X148877380Y-126080714D01*
X148686904Y-126080714D01*
X148591666Y-126128333D01*
X149020238Y-126699761D02*
X148925000Y-126747380D01*
X148686904Y-126747380D01*
X148591666Y-126699761D01*
X148544047Y-126604523D01*
X148544047Y-126509285D01*
X148591666Y-126414047D01*
X148686904Y-126366428D01*
X148925000Y-126366428D01*
X149020238Y-126318809D01*
X149925000Y-126747380D02*
X149925000Y-125747380D01*
X149925000Y-126699761D02*
X149829761Y-126747380D01*
X149639285Y-126747380D01*
X149544047Y-126699761D01*
X149496428Y-126652142D01*
X149448809Y-126556904D01*
X149448809Y-126271190D01*
X149496428Y-126175952D01*
X149544047Y-126128333D01*
X149639285Y-126080714D01*
X149829761Y-126080714D01*
X149925000Y-126128333D01*
X150829761Y-126080714D02*
X150829761Y-126890238D01*
X150782142Y-126985476D01*
X150734523Y-127033095D01*
X150639285Y-127080714D01*
X150496428Y-127080714D01*
X150401190Y-127033095D01*
X150829761Y-126699761D02*
X150734523Y-126747380D01*
X150544047Y-126747380D01*
X150448809Y-126699761D01*
X150401190Y-126652142D01*
X150353571Y-126556904D01*
X150353571Y-126271190D01*
X150401190Y-126175952D01*
X150448809Y-126128333D01*
X150544047Y-126080714D01*
X150734523Y-126080714D01*
X150829761Y-126128333D01*
X151686904Y-126699761D02*
X151591666Y-126747380D01*
X151401190Y-126747380D01*
X151305952Y-126699761D01*
X151258333Y-126604523D01*
X151258333Y-126223571D01*
X151305952Y-126128333D01*
X151401190Y-126080714D01*
X151591666Y-126080714D01*
X151686904Y-126128333D01*
X151734523Y-126223571D01*
X151734523Y-126318809D01*
X151258333Y-126414047D01*
X153067857Y-126747380D02*
X152972619Y-126699761D01*
X152925000Y-126604523D01*
X152925000Y-125747380D01*
X153829761Y-126699761D02*
X153734523Y-126747380D01*
X153544047Y-126747380D01*
X153448809Y-126699761D01*
X153401190Y-126604523D01*
X153401190Y-126223571D01*
X153448809Y-126128333D01*
X153544047Y-126080714D01*
X153734523Y-126080714D01*
X153829761Y-126128333D01*
X153877380Y-126223571D01*
X153877380Y-126318809D01*
X153401190Y-126414047D01*
X154210714Y-126080714D02*
X154448809Y-126747380D01*
X154686904Y-126080714D01*
X155448809Y-126699761D02*
X155353571Y-126747380D01*
X155163095Y-126747380D01*
X155067857Y-126699761D01*
X155020238Y-126604523D01*
X155020238Y-126223571D01*
X155067857Y-126128333D01*
X155163095Y-126080714D01*
X155353571Y-126080714D01*
X155448809Y-126128333D01*
X155496428Y-126223571D01*
X155496428Y-126318809D01*
X155020238Y-126414047D01*
X156067857Y-126747380D02*
X155972619Y-126699761D01*
X155925000Y-126604523D01*
X155925000Y-125747380D01*
X156401190Y-126699761D02*
X156496428Y-126747380D01*
X156686904Y-126747380D01*
X156782142Y-126699761D01*
X156829761Y-126604523D01*
X156829761Y-126556904D01*
X156782142Y-126461666D01*
X156686904Y-126414047D01*
X156544047Y-126414047D01*
X156448809Y-126366428D01*
X156401190Y-126271190D01*
X156401190Y-126223571D01*
X156448809Y-126128333D01*
X156544047Y-126080714D01*
X156686904Y-126080714D01*
X156782142Y-126128333D01*
X157305952Y-126699761D02*
X157305952Y-126747380D01*
X157258333Y-126842619D01*
X157210714Y-126890238D01*
X158448809Y-126699761D02*
X158591666Y-126747380D01*
X158829761Y-126747380D01*
X158925000Y-126699761D01*
X158972619Y-126652142D01*
X159020238Y-126556904D01*
X159020238Y-126461666D01*
X158972619Y-126366428D01*
X158925000Y-126318809D01*
X158829761Y-126271190D01*
X158639285Y-126223571D01*
X158544047Y-126175952D01*
X158496428Y-126128333D01*
X158448809Y-126033095D01*
X158448809Y-125937857D01*
X158496428Y-125842619D01*
X158544047Y-125795000D01*
X158639285Y-125747380D01*
X158877380Y-125747380D01*
X159020238Y-125795000D01*
X159448809Y-126080714D02*
X159448809Y-127080714D01*
X159448809Y-126128333D02*
X159544047Y-126080714D01*
X159734523Y-126080714D01*
X159829761Y-126128333D01*
X159877380Y-126175952D01*
X159925000Y-126271190D01*
X159925000Y-126556904D01*
X159877380Y-126652142D01*
X159829761Y-126699761D01*
X159734523Y-126747380D01*
X159544047Y-126747380D01*
X159448809Y-126699761D01*
X160734523Y-126699761D02*
X160639285Y-126747380D01*
X160448809Y-126747380D01*
X160353571Y-126699761D01*
X160305952Y-126604523D01*
X160305952Y-126223571D01*
X160353571Y-126128333D01*
X160448809Y-126080714D01*
X160639285Y-126080714D01*
X160734523Y-126128333D01*
X160782142Y-126223571D01*
X160782142Y-126318809D01*
X160305952Y-126414047D01*
X161639285Y-126747380D02*
X161639285Y-126223571D01*
X161591666Y-126128333D01*
X161496428Y-126080714D01*
X161305952Y-126080714D01*
X161210714Y-126128333D01*
X161639285Y-126699761D02*
X161544047Y-126747380D01*
X161305952Y-126747380D01*
X161210714Y-126699761D01*
X161163095Y-126604523D01*
X161163095Y-126509285D01*
X161210714Y-126414047D01*
X161305952Y-126366428D01*
X161544047Y-126366428D01*
X161639285Y-126318809D01*
X162115476Y-126747380D02*
X162115476Y-125747380D01*
X162210714Y-126366428D02*
X162496428Y-126747380D01*
X162496428Y-126080714D02*
X162115476Y-126461666D01*
X163305952Y-126699761D02*
X163210714Y-126747380D01*
X163020238Y-126747380D01*
X162925000Y-126699761D01*
X162877380Y-126604523D01*
X162877380Y-126223571D01*
X162925000Y-126128333D01*
X163020238Y-126080714D01*
X163210714Y-126080714D01*
X163305952Y-126128333D01*
X163353571Y-126223571D01*
X163353571Y-126318809D01*
X162877380Y-126414047D01*
X163782142Y-126747380D02*
X163782142Y-126080714D01*
X163782142Y-126271190D02*
X163829761Y-126175952D01*
X163877380Y-126128333D01*
X163972619Y-126080714D01*
X164067857Y-126080714D01*
X164448809Y-126699761D02*
X164448809Y-126747380D01*
X164401190Y-126842619D01*
X164353571Y-126890238D01*
X129401190Y-128309761D02*
X129544047Y-128357380D01*
X129782142Y-128357380D01*
X129877380Y-128309761D01*
X129925000Y-128262142D01*
X129972619Y-128166904D01*
X129972619Y-128071666D01*
X129925000Y-127976428D01*
X129877380Y-127928809D01*
X129782142Y-127881190D01*
X129591666Y-127833571D01*
X129496428Y-127785952D01*
X129448809Y-127738333D01*
X129401190Y-127643095D01*
X129401190Y-127547857D01*
X129448809Y-127452619D01*
X129496428Y-127405000D01*
X129591666Y-127357380D01*
X129829761Y-127357380D01*
X129972619Y-127405000D01*
X130401190Y-127690714D02*
X130401190Y-128690714D01*
X130401190Y-127738333D02*
X130496428Y-127690714D01*
X130686904Y-127690714D01*
X130782142Y-127738333D01*
X130829761Y-127785952D01*
X130877380Y-127881190D01*
X130877380Y-128166904D01*
X130829761Y-128262142D01*
X130782142Y-128309761D01*
X130686904Y-128357380D01*
X130496428Y-128357380D01*
X130401190Y-128309761D01*
X131448809Y-128357380D02*
X131353571Y-128309761D01*
X131305952Y-128262142D01*
X131258333Y-128166904D01*
X131258333Y-127881190D01*
X131305952Y-127785952D01*
X131353571Y-127738333D01*
X131448809Y-127690714D01*
X131591666Y-127690714D01*
X131686904Y-127738333D01*
X131734523Y-127785952D01*
X131782142Y-127881190D01*
X131782142Y-128166904D01*
X131734523Y-128262142D01*
X131686904Y-128309761D01*
X131591666Y-128357380D01*
X131448809Y-128357380D01*
X132210714Y-127690714D02*
X132210714Y-128357380D01*
X132210714Y-127785952D02*
X132258333Y-127738333D01*
X132353571Y-127690714D01*
X132496428Y-127690714D01*
X132591666Y-127738333D01*
X132639285Y-127833571D01*
X132639285Y-128357380D01*
X133067857Y-128309761D02*
X133163095Y-128357380D01*
X133353571Y-128357380D01*
X133448809Y-128309761D01*
X133496428Y-128214523D01*
X133496428Y-128166904D01*
X133448809Y-128071666D01*
X133353571Y-128024047D01*
X133210714Y-128024047D01*
X133115476Y-127976428D01*
X133067857Y-127881190D01*
X133067857Y-127833571D01*
X133115476Y-127738333D01*
X133210714Y-127690714D01*
X133353571Y-127690714D01*
X133448809Y-127738333D01*
X134067857Y-128357380D02*
X133972619Y-128309761D01*
X133925000Y-128262142D01*
X133877380Y-128166904D01*
X133877380Y-127881190D01*
X133925000Y-127785952D01*
X133972619Y-127738333D01*
X134067857Y-127690714D01*
X134210714Y-127690714D01*
X134305952Y-127738333D01*
X134353571Y-127785952D01*
X134401190Y-127881190D01*
X134401190Y-128166904D01*
X134353571Y-128262142D01*
X134305952Y-128309761D01*
X134210714Y-128357380D01*
X134067857Y-128357380D01*
X134829761Y-128357380D02*
X134829761Y-127690714D01*
X134829761Y-127881190D02*
X134877380Y-127785952D01*
X134925000Y-127738333D01*
X135020238Y-127690714D01*
X135115476Y-127690714D01*
X135496428Y-128309761D02*
X135496428Y-128357380D01*
X135448809Y-128452619D01*
X135401190Y-128500238D01*
X136877380Y-127357380D02*
X137067857Y-127357380D01*
X137163095Y-127405000D01*
X137258333Y-127500238D01*
X137305952Y-127690714D01*
X137305952Y-128024047D01*
X137258333Y-128214523D01*
X137163095Y-128309761D01*
X137067857Y-128357380D01*
X136877380Y-128357380D01*
X136782142Y-128309761D01*
X136686904Y-128214523D01*
X136639285Y-128024047D01*
X136639285Y-127690714D01*
X136686904Y-127500238D01*
X136782142Y-127405000D01*
X136877380Y-127357380D01*
X137734523Y-128357380D02*
X137734523Y-127690714D01*
X137734523Y-127881190D02*
X137782142Y-127785952D01*
X137829761Y-127738333D01*
X137925000Y-127690714D01*
X138020238Y-127690714D01*
X138782142Y-127690714D02*
X138782142Y-128500238D01*
X138734523Y-128595476D01*
X138686904Y-128643095D01*
X138591666Y-128690714D01*
X138448809Y-128690714D01*
X138353571Y-128643095D01*
X138782142Y-128309761D02*
X138686904Y-128357380D01*
X138496428Y-128357380D01*
X138401190Y-128309761D01*
X138353571Y-128262142D01*
X138305952Y-128166904D01*
X138305952Y-127881190D01*
X138353571Y-127785952D01*
X138401190Y-127738333D01*
X138496428Y-127690714D01*
X138686904Y-127690714D01*
X138782142Y-127738333D01*
X139686904Y-128357380D02*
X139686904Y-127833571D01*
X139639285Y-127738333D01*
X139544047Y-127690714D01*
X139353571Y-127690714D01*
X139258333Y-127738333D01*
X139686904Y-128309761D02*
X139591666Y-128357380D01*
X139353571Y-128357380D01*
X139258333Y-128309761D01*
X139210714Y-128214523D01*
X139210714Y-128119285D01*
X139258333Y-128024047D01*
X139353571Y-127976428D01*
X139591666Y-127976428D01*
X139686904Y-127928809D01*
X140163095Y-127690714D02*
X140163095Y-128357380D01*
X140163095Y-127785952D02*
X140210714Y-127738333D01*
X140305952Y-127690714D01*
X140448809Y-127690714D01*
X140544047Y-127738333D01*
X140591666Y-127833571D01*
X140591666Y-128357380D01*
X141067857Y-128357380D02*
X141067857Y-127690714D01*
X141067857Y-127357380D02*
X141020238Y-127405000D01*
X141067857Y-127452619D01*
X141115476Y-127405000D01*
X141067857Y-127357380D01*
X141067857Y-127452619D01*
X141448809Y-127690714D02*
X141972619Y-127690714D01*
X141448809Y-128357380D01*
X141972619Y-128357380D01*
X142734523Y-128309761D02*
X142639285Y-128357380D01*
X142448809Y-128357380D01*
X142353571Y-128309761D01*
X142305952Y-128214523D01*
X142305952Y-127833571D01*
X142353571Y-127738333D01*
X142448809Y-127690714D01*
X142639285Y-127690714D01*
X142734523Y-127738333D01*
X142782142Y-127833571D01*
X142782142Y-127928809D01*
X142305952Y-128024047D01*
X143210714Y-128357380D02*
X143210714Y-127690714D01*
X143210714Y-127881190D02*
X143258333Y-127785952D01*
X143305952Y-127738333D01*
X143401190Y-127690714D01*
X143496428Y-127690714D01*
X143877380Y-128309761D02*
X143877380Y-128357380D01*
X143829761Y-128452619D01*
X143782142Y-128500238D01*
X144925000Y-127357380D02*
X145258333Y-128357380D01*
X145591666Y-127357380D01*
X146305952Y-128309761D02*
X146210714Y-128357380D01*
X146020238Y-128357380D01*
X145925000Y-128309761D01*
X145877380Y-128214523D01*
X145877380Y-127833571D01*
X145925000Y-127738333D01*
X146020238Y-127690714D01*
X146210714Y-127690714D01*
X146305952Y-127738333D01*
X146353571Y-127833571D01*
X146353571Y-127928809D01*
X145877380Y-128024047D01*
X146782142Y-127690714D02*
X146782142Y-128357380D01*
X146782142Y-127785952D02*
X146829761Y-127738333D01*
X146925000Y-127690714D01*
X147067857Y-127690714D01*
X147163095Y-127738333D01*
X147210714Y-127833571D01*
X147210714Y-128357380D01*
X148115476Y-128357380D02*
X148115476Y-127357380D01*
X148115476Y-128309761D02*
X148020238Y-128357380D01*
X147829761Y-128357380D01*
X147734523Y-128309761D01*
X147686904Y-128262142D01*
X147639285Y-128166904D01*
X147639285Y-127881190D01*
X147686904Y-127785952D01*
X147734523Y-127738333D01*
X147829761Y-127690714D01*
X148020238Y-127690714D01*
X148115476Y-127738333D01*
X148734523Y-128357380D02*
X148639285Y-128309761D01*
X148591666Y-128262142D01*
X148544047Y-128166904D01*
X148544047Y-127881190D01*
X148591666Y-127785952D01*
X148639285Y-127738333D01*
X148734523Y-127690714D01*
X148877380Y-127690714D01*
X148972619Y-127738333D01*
X149020238Y-127785952D01*
X149067857Y-127881190D01*
X149067857Y-128166904D01*
X149020238Y-128262142D01*
X148972619Y-128309761D01*
X148877380Y-128357380D01*
X148734523Y-128357380D01*
X149496428Y-128357380D02*
X149496428Y-127690714D01*
X149496428Y-127881190D02*
X149544047Y-127785952D01*
X149591666Y-127738333D01*
X149686904Y-127690714D01*
X149782142Y-127690714D01*
X150163095Y-128309761D02*
X150163095Y-128357380D01*
X150115476Y-128452619D01*
X150067857Y-128500238D01*
X151210714Y-127357380D02*
X151544047Y-128357380D01*
X151877380Y-127357380D01*
X152353571Y-128357380D02*
X152258333Y-128309761D01*
X152210714Y-128262142D01*
X152163095Y-128166904D01*
X152163095Y-127881190D01*
X152210714Y-127785952D01*
X152258333Y-127738333D01*
X152353571Y-127690714D01*
X152496428Y-127690714D01*
X152591666Y-127738333D01*
X152639285Y-127785952D01*
X152686904Y-127881190D01*
X152686904Y-128166904D01*
X152639285Y-128262142D01*
X152591666Y-128309761D01*
X152496428Y-128357380D01*
X152353571Y-128357380D01*
X153258333Y-128357380D02*
X153163095Y-128309761D01*
X153115476Y-128214523D01*
X153115476Y-127357380D01*
X154067857Y-127690714D02*
X154067857Y-128357380D01*
X153639285Y-127690714D02*
X153639285Y-128214523D01*
X153686904Y-128309761D01*
X153782142Y-128357380D01*
X153925000Y-128357380D01*
X154020238Y-128309761D01*
X154067857Y-128262142D01*
X154544047Y-127690714D02*
X154544047Y-128357380D01*
X154544047Y-127785952D02*
X154591666Y-127738333D01*
X154686904Y-127690714D01*
X154829761Y-127690714D01*
X154925000Y-127738333D01*
X154972619Y-127833571D01*
X154972619Y-128357380D01*
X155305952Y-127690714D02*
X155686904Y-127690714D01*
X155448809Y-127357380D02*
X155448809Y-128214523D01*
X155496428Y-128309761D01*
X155591666Y-128357380D01*
X155686904Y-128357380D01*
X156401190Y-128309761D02*
X156305952Y-128357380D01*
X156115476Y-128357380D01*
X156020238Y-128309761D01*
X155972619Y-128214523D01*
X155972619Y-127833571D01*
X156020238Y-127738333D01*
X156115476Y-127690714D01*
X156305952Y-127690714D01*
X156401190Y-127738333D01*
X156448809Y-127833571D01*
X156448809Y-127928809D01*
X155972619Y-128024047D01*
X157258333Y-128309761D02*
X157163095Y-128357380D01*
X156972619Y-128357380D01*
X156877380Y-128309761D01*
X156829761Y-128214523D01*
X156829761Y-127833571D01*
X156877380Y-127738333D01*
X156972619Y-127690714D01*
X157163095Y-127690714D01*
X157258333Y-127738333D01*
X157305952Y-127833571D01*
X157305952Y-127928809D01*
X156829761Y-128024047D01*
X157734523Y-128357380D02*
X157734523Y-127690714D01*
X157734523Y-127881190D02*
X157782142Y-127785952D01*
X157829761Y-127738333D01*
X157925000Y-127690714D01*
X158020238Y-127690714D01*
X158401190Y-128309761D02*
X158401190Y-128357380D01*
X158353571Y-128452619D01*
X158305952Y-128500238D01*
X159972619Y-128309761D02*
X159877380Y-128357380D01*
X159686904Y-128357380D01*
X159591666Y-128309761D01*
X159544047Y-128214523D01*
X159544047Y-127833571D01*
X159591666Y-127738333D01*
X159686904Y-127690714D01*
X159877380Y-127690714D01*
X159972619Y-127738333D01*
X160020238Y-127833571D01*
X160020238Y-127928809D01*
X159544047Y-128024047D01*
X160305952Y-127690714D02*
X160686904Y-127690714D01*
X160448809Y-127357380D02*
X160448809Y-128214523D01*
X160496428Y-128309761D01*
X160591666Y-128357380D01*
X160686904Y-128357380D01*
X161448809Y-128309761D02*
X161353571Y-128357380D01*
X161163095Y-128357380D01*
X161067857Y-128309761D01*
X161020238Y-128262142D01*
X160972619Y-128166904D01*
X160972619Y-127881190D01*
X161020238Y-127785952D01*
X161067857Y-127738333D01*
X161163095Y-127690714D01*
X161353571Y-127690714D01*
X161448809Y-127738333D01*
X170341666Y-144560714D02*
X170341666Y-144084523D01*
X170627380Y-144655952D02*
X169627380Y-144322619D01*
X170627380Y-143989285D01*
X170627380Y-143655952D02*
X169960714Y-143655952D01*
X170151190Y-143655952D02*
X170055952Y-143608333D01*
X170008333Y-143560714D01*
X169960714Y-143465476D01*
X169960714Y-143370238D01*
X169960714Y-143179761D02*
X169960714Y-142798809D01*
X169627380Y-143036904D02*
X170484523Y-143036904D01*
X170579761Y-142989285D01*
X170627380Y-142894047D01*
X170627380Y-142798809D01*
X169960714Y-142560714D02*
X170627380Y-142370238D01*
X170151190Y-142179761D01*
X170627380Y-141989285D01*
X169960714Y-141798809D01*
X170627380Y-141274999D02*
X170579761Y-141370238D01*
X170532142Y-141417857D01*
X170436904Y-141465476D01*
X170151190Y-141465476D01*
X170055952Y-141417857D01*
X170008333Y-141370238D01*
X169960714Y-141274999D01*
X169960714Y-141132142D01*
X170008333Y-141036904D01*
X170055952Y-140989285D01*
X170151190Y-140941666D01*
X170436904Y-140941666D01*
X170532142Y-140989285D01*
X170579761Y-141036904D01*
X170627380Y-141132142D01*
X170627380Y-141274999D01*
X170627380Y-140513095D02*
X169960714Y-140513095D01*
X170151190Y-140513095D02*
X170055952Y-140465476D01*
X170008333Y-140417857D01*
X169960714Y-140322619D01*
X169960714Y-140227380D01*
X170627380Y-139894047D02*
X169627380Y-139894047D01*
X170246428Y-139798809D02*
X170627380Y-139513095D01*
X169960714Y-139513095D02*
X170341666Y-139894047D01*
X170627380Y-138179761D02*
X170579761Y-138274999D01*
X170532142Y-138322619D01*
X170436904Y-138370238D01*
X170151190Y-138370238D01*
X170055952Y-138322619D01*
X170008333Y-138274999D01*
X169960714Y-138179761D01*
X169960714Y-138036904D01*
X170008333Y-137941666D01*
X170055952Y-137894047D01*
X170151190Y-137846428D01*
X170436904Y-137846428D01*
X170532142Y-137894047D01*
X170579761Y-137941666D01*
X170627380Y-138036904D01*
X170627380Y-138179761D01*
X170627380Y-137417857D02*
X169960714Y-137417857D01*
X170151190Y-137417857D02*
X170055952Y-137370238D01*
X170008333Y-137322619D01*
X169960714Y-137227380D01*
X169960714Y-137132142D01*
X170103571Y-135703571D02*
X170151190Y-135560714D01*
X170198809Y-135513095D01*
X170294047Y-135465476D01*
X170436904Y-135465476D01*
X170532142Y-135513095D01*
X170579761Y-135560714D01*
X170627380Y-135655952D01*
X170627380Y-136036904D01*
X169627380Y-136036904D01*
X169627380Y-135703571D01*
X169675000Y-135608333D01*
X169722619Y-135560714D01*
X169817857Y-135513095D01*
X169913095Y-135513095D01*
X170008333Y-135560714D01*
X170055952Y-135608333D01*
X170103571Y-135703571D01*
X170103571Y-136036904D01*
X170627380Y-134608333D02*
X170103571Y-134608333D01*
X170008333Y-134655952D01*
X169960714Y-134751190D01*
X169960714Y-134941666D01*
X170008333Y-135036904D01*
X170579761Y-134608333D02*
X170627380Y-134703571D01*
X170627380Y-134941666D01*
X170579761Y-135036904D01*
X170484523Y-135084523D01*
X170389285Y-135084523D01*
X170294047Y-135036904D01*
X170246428Y-134941666D01*
X170246428Y-134703571D01*
X170198809Y-134608333D01*
X170627380Y-133703571D02*
X169627380Y-133703571D01*
X170579761Y-133703571D02*
X170627380Y-133798809D01*
X170627380Y-133989285D01*
X170579761Y-134084523D01*
X170532142Y-134132142D01*
X170436904Y-134179761D01*
X170151190Y-134179761D01*
X170055952Y-134132142D01*
X170008333Y-134084523D01*
X169960714Y-133989285D01*
X169960714Y-133798809D01*
X170008333Y-133703571D01*
X169960714Y-132798809D02*
X170770238Y-132798809D01*
X170865476Y-132846428D01*
X170913095Y-132894047D01*
X170960714Y-132989285D01*
X170960714Y-133132142D01*
X170913095Y-133227380D01*
X170579761Y-132798809D02*
X170627380Y-132894047D01*
X170627380Y-133084523D01*
X170579761Y-133179761D01*
X170532142Y-133227380D01*
X170436904Y-133274999D01*
X170151190Y-133274999D01*
X170055952Y-133227380D01*
X170008333Y-133179761D01*
X169960714Y-133084523D01*
X169960714Y-132894047D01*
X170008333Y-132798809D01*
X170579761Y-131941666D02*
X170627380Y-132036904D01*
X170627380Y-132227380D01*
X170579761Y-132322619D01*
X170484523Y-132370238D01*
X170103571Y-132370238D01*
X170008333Y-132322619D01*
X169960714Y-132227380D01*
X169960714Y-132036904D01*
X170008333Y-131941666D01*
X170103571Y-131894047D01*
X170198809Y-131894047D01*
X170294047Y-132370238D01*
X170579761Y-130751190D02*
X170627380Y-130608333D01*
X170627380Y-130370238D01*
X170579761Y-130274999D01*
X170532142Y-130227380D01*
X170436904Y-130179761D01*
X170341666Y-130179761D01*
X170246428Y-130227380D01*
X170198809Y-130274999D01*
X170151190Y-130370238D01*
X170103571Y-130560714D01*
X170055952Y-130655952D01*
X170008333Y-130703571D01*
X169913095Y-130751190D01*
X169817857Y-130751190D01*
X169722619Y-130703571D01*
X169675000Y-130655952D01*
X169627380Y-130560714D01*
X169627380Y-130322619D01*
X169675000Y-130179761D01*
X170627380Y-129751190D02*
X169627380Y-129751190D01*
X170627380Y-129322619D02*
X170103571Y-129322619D01*
X170008333Y-129370238D01*
X169960714Y-129465476D01*
X169960714Y-129608333D01*
X170008333Y-129703571D01*
X170055952Y-129751190D01*
X170627380Y-128417857D02*
X170103571Y-128417857D01*
X170008333Y-128465476D01*
X169960714Y-128560714D01*
X169960714Y-128751190D01*
X170008333Y-128846428D01*
X170579761Y-128417857D02*
X170627380Y-128513095D01*
X170627380Y-128751190D01*
X170579761Y-128846428D01*
X170484523Y-128894047D01*
X170389285Y-128894047D01*
X170294047Y-128846428D01*
X170246428Y-128751190D01*
X170246428Y-128513095D01*
X170198809Y-128417857D01*
X169960714Y-127941666D02*
X170960714Y-127941666D01*
X170008333Y-127941666D02*
X169960714Y-127846428D01*
X169960714Y-127655952D01*
X170008333Y-127560714D01*
X170055952Y-127513095D01*
X170151190Y-127465476D01*
X170436904Y-127465476D01*
X170532142Y-127513095D01*
X170579761Y-127560714D01*
X170627380Y-127655952D01*
X170627380Y-127846428D01*
X170579761Y-127941666D01*
X170579761Y-126655952D02*
X170627380Y-126751190D01*
X170627380Y-126941666D01*
X170579761Y-127036904D01*
X170484523Y-127084523D01*
X170103571Y-127084523D01*
X170008333Y-127036904D01*
X169960714Y-126941666D01*
X169960714Y-126751190D01*
X170008333Y-126655952D01*
X170103571Y-126608333D01*
X170198809Y-126608333D01*
X170294047Y-127084523D01*
X170627380Y-124989285D02*
X169627380Y-124989285D01*
X170579761Y-124989285D02*
X170627380Y-125084523D01*
X170627380Y-125274999D01*
X170579761Y-125370238D01*
X170532142Y-125417857D01*
X170436904Y-125465476D01*
X170151190Y-125465476D01*
X170055952Y-125417857D01*
X170008333Y-125370238D01*
X169960714Y-125274999D01*
X169960714Y-125084523D01*
X170008333Y-124989285D01*
X170579761Y-124132142D02*
X170627380Y-124227380D01*
X170627380Y-124417857D01*
X170579761Y-124513095D01*
X170484523Y-124560714D01*
X170103571Y-124560714D01*
X170008333Y-124513095D01*
X169960714Y-124417857D01*
X169960714Y-124227380D01*
X170008333Y-124132142D01*
X170103571Y-124084523D01*
X170198809Y-124084523D01*
X170294047Y-124560714D01*
X170579761Y-123703571D02*
X170627380Y-123608333D01*
X170627380Y-123417857D01*
X170579761Y-123322619D01*
X170484523Y-123274999D01*
X170436904Y-123274999D01*
X170341666Y-123322619D01*
X170294047Y-123417857D01*
X170294047Y-123560714D01*
X170246428Y-123655952D01*
X170151190Y-123703571D01*
X170103571Y-123703571D01*
X170008333Y-123655952D01*
X169960714Y-123560714D01*
X169960714Y-123417857D01*
X170008333Y-123322619D01*
X170627380Y-122846428D02*
X169960714Y-122846428D01*
X169627380Y-122846428D02*
X169675000Y-122894047D01*
X169722619Y-122846428D01*
X169675000Y-122798809D01*
X169627380Y-122846428D01*
X169722619Y-122846428D01*
X169960714Y-121941666D02*
X170770238Y-121941666D01*
X170865476Y-121989285D01*
X170913095Y-122036904D01*
X170960714Y-122132142D01*
X170960714Y-122274999D01*
X170913095Y-122370238D01*
X170579761Y-121941666D02*
X170627380Y-122036904D01*
X170627380Y-122227380D01*
X170579761Y-122322619D01*
X170532142Y-122370238D01*
X170436904Y-122417857D01*
X170151190Y-122417857D01*
X170055952Y-122370238D01*
X170008333Y-122322619D01*
X169960714Y-122227380D01*
X169960714Y-122036904D01*
X170008333Y-121941666D01*
X169960714Y-121465476D02*
X170627380Y-121465476D01*
X170055952Y-121465476D02*
X170008333Y-121417857D01*
X169960714Y-121322619D01*
X169960714Y-121179761D01*
X170008333Y-121084523D01*
X170103571Y-121036904D01*
X170627380Y-121036904D01*
X170579761Y-119370238D02*
X170627380Y-119465476D01*
X170627380Y-119655952D01*
X170579761Y-119751190D01*
X170532142Y-119798809D01*
X170436904Y-119846428D01*
X170151190Y-119846428D01*
X170055952Y-119798809D01*
X170008333Y-119751190D01*
X169960714Y-119655952D01*
X169960714Y-119465476D01*
X170008333Y-119370238D01*
X170627380Y-118513095D02*
X170103571Y-118513095D01*
X170008333Y-118560714D01*
X169960714Y-118655952D01*
X169960714Y-118846428D01*
X170008333Y-118941666D01*
X170579761Y-118513095D02*
X170627380Y-118608333D01*
X170627380Y-118846428D01*
X170579761Y-118941666D01*
X170484523Y-118989285D01*
X170389285Y-118989285D01*
X170294047Y-118941666D01*
X170246428Y-118846428D01*
X170246428Y-118608333D01*
X170198809Y-118513095D01*
X169960714Y-118036904D02*
X170627380Y-118036904D01*
X170055952Y-118036904D02*
X170008333Y-117989285D01*
X169960714Y-117894047D01*
X169960714Y-117751190D01*
X170008333Y-117655952D01*
X170103571Y-117608333D01*
X170627380Y-117608333D01*
X170627380Y-116370238D02*
X169627380Y-116370238D01*
X170008333Y-116370238D02*
X169960714Y-116274999D01*
X169960714Y-116084523D01*
X170008333Y-115989285D01*
X170055952Y-115941666D01*
X170151190Y-115894047D01*
X170436904Y-115894047D01*
X170532142Y-115941666D01*
X170579761Y-115989285D01*
X170627380Y-116084523D01*
X170627380Y-116274999D01*
X170579761Y-116370238D01*
X170579761Y-115084523D02*
X170627380Y-115179761D01*
X170627380Y-115370238D01*
X170579761Y-115465476D01*
X170484523Y-115513095D01*
X170103571Y-115513095D01*
X170008333Y-115465476D01*
X169960714Y-115370238D01*
X169960714Y-115179761D01*
X170008333Y-115084523D01*
X170103571Y-115036904D01*
X170198809Y-115036904D01*
X170294047Y-115513095D01*
X170579761Y-113417857D02*
X170627380Y-113513095D01*
X170627380Y-113703571D01*
X170579761Y-113798809D01*
X170532142Y-113846428D01*
X170436904Y-113894047D01*
X170151190Y-113894047D01*
X170055952Y-113846428D01*
X170008333Y-113798809D01*
X169960714Y-113703571D01*
X169960714Y-113513095D01*
X170008333Y-113417857D01*
X170627380Y-112989285D02*
X169627380Y-112989285D01*
X170627380Y-112560714D02*
X170103571Y-112560714D01*
X170008333Y-112608333D01*
X169960714Y-112703571D01*
X169960714Y-112846428D01*
X170008333Y-112941666D01*
X170055952Y-112989285D01*
X170627380Y-111655952D02*
X170103571Y-111655952D01*
X170008333Y-111703571D01*
X169960714Y-111798809D01*
X169960714Y-111989285D01*
X170008333Y-112084523D01*
X170579761Y-111655952D02*
X170627380Y-111751190D01*
X170627380Y-111989285D01*
X170579761Y-112084523D01*
X170484523Y-112132142D01*
X170389285Y-112132142D01*
X170294047Y-112084523D01*
X170246428Y-111989285D01*
X170246428Y-111751190D01*
X170198809Y-111655952D01*
X169960714Y-111179761D02*
X170627380Y-111179761D01*
X170055952Y-111179761D02*
X170008333Y-111132142D01*
X169960714Y-111036904D01*
X169960714Y-110894047D01*
X170008333Y-110798809D01*
X170103571Y-110751190D01*
X170627380Y-110751190D01*
X169960714Y-109846428D02*
X170770238Y-109846428D01*
X170865476Y-109894047D01*
X170913095Y-109941666D01*
X170960714Y-110036904D01*
X170960714Y-110179761D01*
X170913095Y-110274999D01*
X170579761Y-109846428D02*
X170627380Y-109941666D01*
X170627380Y-110132142D01*
X170579761Y-110227380D01*
X170532142Y-110274999D01*
X170436904Y-110322619D01*
X170151190Y-110322619D01*
X170055952Y-110274999D01*
X170008333Y-110227380D01*
X169960714Y-110132142D01*
X169960714Y-109941666D01*
X170008333Y-109846428D01*
X170579761Y-108989285D02*
X170627380Y-109084523D01*
X170627380Y-109274999D01*
X170579761Y-109370238D01*
X170484523Y-109417857D01*
X170103571Y-109417857D01*
X170008333Y-109370238D01*
X169960714Y-109274999D01*
X169960714Y-109084523D01*
X170008333Y-108989285D01*
X170103571Y-108941666D01*
X170198809Y-108941666D01*
X170294047Y-109417857D01*
X170627380Y-108084523D02*
X169627380Y-108084523D01*
X170579761Y-108084523D02*
X170627380Y-108179761D01*
X170627380Y-108370238D01*
X170579761Y-108465476D01*
X170532142Y-108513095D01*
X170436904Y-108560714D01*
X170151190Y-108560714D01*
X170055952Y-108513095D01*
X170008333Y-108465476D01*
X169960714Y-108370238D01*
X169960714Y-108179761D01*
X170008333Y-108084523D01*
X170627380Y-106417857D02*
X170103571Y-106417857D01*
X170008333Y-106465476D01*
X169960714Y-106560714D01*
X169960714Y-106751190D01*
X170008333Y-106846428D01*
X170579761Y-106417857D02*
X170627380Y-106513095D01*
X170627380Y-106751190D01*
X170579761Y-106846428D01*
X170484523Y-106894047D01*
X170389285Y-106894047D01*
X170294047Y-106846428D01*
X170246428Y-106751190D01*
X170246428Y-106513095D01*
X170198809Y-106417857D01*
X170579761Y-105989285D02*
X170627380Y-105894047D01*
X170627380Y-105703571D01*
X170579761Y-105608333D01*
X170484523Y-105560714D01*
X170436904Y-105560714D01*
X170341666Y-105608333D01*
X170294047Y-105703571D01*
X170294047Y-105846428D01*
X170246428Y-105941666D01*
X170151190Y-105989285D01*
X170103571Y-105989285D01*
X170008333Y-105941666D01*
X169960714Y-105846428D01*
X169960714Y-105703571D01*
X170008333Y-105608333D01*
X170627380Y-104370238D02*
X169960714Y-104370238D01*
X170151190Y-104370238D02*
X170055952Y-104322619D01*
X170008333Y-104274999D01*
X169960714Y-104179761D01*
X169960714Y-104084523D01*
X170579761Y-103370238D02*
X170627380Y-103465476D01*
X170627380Y-103655952D01*
X170579761Y-103751190D01*
X170484523Y-103798809D01*
X170103571Y-103798809D01*
X170008333Y-103751190D01*
X169960714Y-103655952D01*
X169960714Y-103465476D01*
X170008333Y-103370238D01*
X170103571Y-103322619D01*
X170198809Y-103322619D01*
X170294047Y-103798809D01*
X169960714Y-102465476D02*
X170960714Y-102465476D01*
X170579761Y-102465476D02*
X170627380Y-102560714D01*
X170627380Y-102751190D01*
X170579761Y-102846428D01*
X170532142Y-102894047D01*
X170436904Y-102941666D01*
X170151190Y-102941666D01*
X170055952Y-102894047D01*
X170008333Y-102846428D01*
X169960714Y-102751190D01*
X169960714Y-102560714D01*
X170008333Y-102465476D01*
X169960714Y-101560714D02*
X170627380Y-101560714D01*
X169960714Y-101989285D02*
X170484523Y-101989285D01*
X170579761Y-101941666D01*
X170627380Y-101846428D01*
X170627380Y-101703571D01*
X170579761Y-101608333D01*
X170532142Y-101560714D01*
X170579761Y-100703571D02*
X170627380Y-100798809D01*
X170627380Y-100989285D01*
X170579761Y-101084523D01*
X170484523Y-101132142D01*
X170103571Y-101132142D01*
X170008333Y-101084523D01*
X169960714Y-100989285D01*
X169960714Y-100798809D01*
X170008333Y-100703571D01*
X170103571Y-100655952D01*
X170198809Y-100655952D01*
X170294047Y-101132142D01*
X170579761Y-100274999D02*
X170627380Y-100179761D01*
X170627380Y-99989285D01*
X170579761Y-99894047D01*
X170484523Y-99846428D01*
X170436904Y-99846428D01*
X170341666Y-99894047D01*
X170294047Y-99989285D01*
X170294047Y-100132142D01*
X170246428Y-100227380D01*
X170151190Y-100274999D01*
X170103571Y-100274999D01*
X170008333Y-100227380D01*
X169960714Y-100132142D01*
X169960714Y-99989285D01*
X170008333Y-99894047D01*
X169960714Y-99560714D02*
X169960714Y-99179761D01*
X169627380Y-99417857D02*
X170484523Y-99417857D01*
X170579761Y-99370238D01*
X170627380Y-99274999D01*
X170627380Y-99179761D01*
X170579761Y-98465476D02*
X170627380Y-98560714D01*
X170627380Y-98751190D01*
X170579761Y-98846428D01*
X170484523Y-98894047D01*
X170103571Y-98894047D01*
X170008333Y-98846428D01*
X169960714Y-98751190D01*
X169960714Y-98560714D01*
X170008333Y-98465476D01*
X170103571Y-98417857D01*
X170198809Y-98417857D01*
X170294047Y-98894047D01*
X170627380Y-97560714D02*
X169627380Y-97560714D01*
X170579761Y-97560714D02*
X170627380Y-97655952D01*
X170627380Y-97846428D01*
X170579761Y-97941666D01*
X170532142Y-97989285D01*
X170436904Y-98036904D01*
X170151190Y-98036904D01*
X170055952Y-97989285D01*
X170008333Y-97941666D01*
X169960714Y-97846428D01*
X169960714Y-97655952D01*
X170008333Y-97560714D01*
X170532142Y-97084523D02*
X170579761Y-97036904D01*
X170627380Y-97084523D01*
X170579761Y-97132142D01*
X170532142Y-97084523D01*
X170627380Y-97084523D01*
X169627380Y-95941666D02*
X170627380Y-95703571D01*
X169913095Y-95513095D01*
X170627380Y-95322619D01*
X169627380Y-95084523D01*
X170579761Y-94322619D02*
X170627380Y-94417857D01*
X170627380Y-94608333D01*
X170579761Y-94703571D01*
X170484523Y-94751190D01*
X170103571Y-94751190D01*
X170008333Y-94703571D01*
X169960714Y-94608333D01*
X169960714Y-94417857D01*
X170008333Y-94322619D01*
X170103571Y-94274999D01*
X170198809Y-94274999D01*
X170294047Y-94751190D01*
X169960714Y-93179761D02*
X170627380Y-92989285D01*
X170151190Y-92798809D01*
X170627380Y-92608333D01*
X169960714Y-92417857D01*
X170627380Y-92036904D02*
X169960714Y-92036904D01*
X169627380Y-92036904D02*
X169675000Y-92084523D01*
X169722619Y-92036904D01*
X169675000Y-91989285D01*
X169627380Y-92036904D01*
X169722619Y-92036904D01*
X170627380Y-91417857D02*
X170579761Y-91513095D01*
X170484523Y-91560714D01*
X169627380Y-91560714D01*
X170627380Y-90894047D02*
X170579761Y-90989285D01*
X170484523Y-91036904D01*
X169627380Y-91036904D01*
X169960714Y-89846428D02*
X170627380Y-89655952D01*
X170151190Y-89465476D01*
X170627380Y-89274999D01*
X169960714Y-89084523D01*
X170627380Y-88560714D02*
X170579761Y-88655952D01*
X170532142Y-88703571D01*
X170436904Y-88751190D01*
X170151190Y-88751190D01*
X170055952Y-88703571D01*
X170008333Y-88655952D01*
X169960714Y-88560714D01*
X169960714Y-88417857D01*
X170008333Y-88322619D01*
X170055952Y-88274999D01*
X170151190Y-88227380D01*
X170436904Y-88227380D01*
X170532142Y-88274999D01*
X170579761Y-88322619D01*
X170627380Y-88417857D01*
X170627380Y-88560714D01*
X170627380Y-87798809D02*
X169960714Y-87798809D01*
X170151190Y-87798809D02*
X170055952Y-87751190D01*
X170008333Y-87703571D01*
X169960714Y-87608333D01*
X169960714Y-87513095D01*
X170627380Y-87179761D02*
X169627380Y-87179761D01*
X170246428Y-87084523D02*
X170627380Y-86798809D01*
X169960714Y-86798809D02*
X170341666Y-87179761D01*
X169960714Y-85703571D02*
X170627380Y-85513095D01*
X170151190Y-85322619D01*
X170627380Y-85132142D01*
X169960714Y-84941666D01*
X170627380Y-84560714D02*
X169960714Y-84560714D01*
X169627380Y-84560714D02*
X169675000Y-84608333D01*
X169722619Y-84560714D01*
X169675000Y-84513095D01*
X169627380Y-84560714D01*
X169722619Y-84560714D01*
X169960714Y-84227380D02*
X169960714Y-83846428D01*
X169627380Y-84084523D02*
X170484523Y-84084523D01*
X170579761Y-84036904D01*
X170627380Y-83941666D01*
X170627380Y-83846428D01*
X170627380Y-83513095D02*
X169627380Y-83513095D01*
X170627380Y-83084523D02*
X170103571Y-83084523D01*
X170008333Y-83132142D01*
X169960714Y-83227380D01*
X169960714Y-83370238D01*
X170008333Y-83465476D01*
X170055952Y-83513095D01*
X169960714Y-81941666D02*
X170627380Y-81703571D01*
X169960714Y-81465476D02*
X170627380Y-81703571D01*
X170865476Y-81798809D01*
X170913095Y-81846428D01*
X170960714Y-81941666D01*
X170627380Y-80941666D02*
X170579761Y-81036904D01*
X170532142Y-81084523D01*
X170436904Y-81132142D01*
X170151190Y-81132142D01*
X170055952Y-81084523D01*
X170008333Y-81036904D01*
X169960714Y-80941666D01*
X169960714Y-80798809D01*
X170008333Y-80703571D01*
X170055952Y-80655952D01*
X170151190Y-80608333D01*
X170436904Y-80608333D01*
X170532142Y-80655952D01*
X170579761Y-80703571D01*
X170627380Y-80798809D01*
X170627380Y-80941666D01*
X169960714Y-79751190D02*
X170627380Y-79751190D01*
X169960714Y-80179761D02*
X170484523Y-80179761D01*
X170579761Y-80132142D01*
X170627380Y-80036904D01*
X170627380Y-79894047D01*
X170579761Y-79798809D01*
X170532142Y-79751190D01*
X169960714Y-78655952D02*
X169960714Y-78275000D01*
X169627380Y-78513095D02*
X170484523Y-78513095D01*
X170579761Y-78465476D01*
X170627380Y-78370238D01*
X170627380Y-78275000D01*
X170627380Y-77798809D02*
X170579761Y-77894047D01*
X170532142Y-77941666D01*
X170436904Y-77989285D01*
X170151190Y-77989285D01*
X170055952Y-77941666D01*
X170008333Y-77894047D01*
X169960714Y-77798809D01*
X169960714Y-77655952D01*
X170008333Y-77560714D01*
X170055952Y-77513095D01*
X170151190Y-77465476D01*
X170436904Y-77465476D01*
X170532142Y-77513095D01*
X170579761Y-77560714D01*
X170627380Y-77655952D01*
X170627380Y-77798809D01*
X170579761Y-75846428D02*
X170627380Y-75941666D01*
X170627380Y-76132142D01*
X170579761Y-76227380D01*
X170532142Y-76275000D01*
X170436904Y-76322619D01*
X170151190Y-76322619D01*
X170055952Y-76275000D01*
X170008333Y-76227380D01*
X169960714Y-76132142D01*
X169960714Y-75941666D01*
X170008333Y-75846428D01*
X170627380Y-75275000D02*
X170579761Y-75370238D01*
X170532142Y-75417857D01*
X170436904Y-75465476D01*
X170151190Y-75465476D01*
X170055952Y-75417857D01*
X170008333Y-75370238D01*
X169960714Y-75275000D01*
X169960714Y-75132142D01*
X170008333Y-75036904D01*
X170055952Y-74989285D01*
X170151190Y-74941666D01*
X170436904Y-74941666D01*
X170532142Y-74989285D01*
X170579761Y-75036904D01*
X170627380Y-75132142D01*
X170627380Y-75275000D01*
X170627380Y-74513095D02*
X169960714Y-74513095D01*
X170055952Y-74513095D02*
X170008333Y-74465476D01*
X169960714Y-74370238D01*
X169960714Y-74227380D01*
X170008333Y-74132142D01*
X170103571Y-74084523D01*
X170627380Y-74084523D01*
X170103571Y-74084523D02*
X170008333Y-74036904D01*
X169960714Y-73941666D01*
X169960714Y-73798809D01*
X170008333Y-73703571D01*
X170103571Y-73655952D01*
X170627380Y-73655952D01*
X170579761Y-72798809D02*
X170627380Y-72894047D01*
X170627380Y-73084523D01*
X170579761Y-73179761D01*
X170484523Y-73227380D01*
X170103571Y-73227380D01*
X170008333Y-73179761D01*
X169960714Y-73084523D01*
X169960714Y-72894047D01*
X170008333Y-72798809D01*
X170103571Y-72751190D01*
X170198809Y-72751190D01*
X170294047Y-73227380D01*
X169960714Y-71132142D02*
X170627380Y-71132142D01*
X169960714Y-71560714D02*
X170484523Y-71560714D01*
X170579761Y-71513095D01*
X170627380Y-71417857D01*
X170627380Y-71275000D01*
X170579761Y-71179761D01*
X170532142Y-71132142D01*
X169960714Y-70655952D02*
X170960714Y-70655952D01*
X170008333Y-70655952D02*
X169960714Y-70560714D01*
X169960714Y-70370238D01*
X170008333Y-70275000D01*
X170055952Y-70227380D01*
X170151190Y-70179761D01*
X170436904Y-70179761D01*
X170532142Y-70227380D01*
X170579761Y-70275000D01*
X170627380Y-70370238D01*
X170627380Y-70560714D01*
X170579761Y-70655952D01*
X169960714Y-69084523D02*
X170627380Y-68894047D01*
X170151190Y-68703571D01*
X170627380Y-68513095D01*
X169960714Y-68322619D01*
X170627380Y-67941666D02*
X169960714Y-67941666D01*
X169627380Y-67941666D02*
X169675000Y-67989285D01*
X169722619Y-67941666D01*
X169675000Y-67894047D01*
X169627380Y-67941666D01*
X169722619Y-67941666D01*
X169960714Y-67608333D02*
X169960714Y-67227380D01*
X169627380Y-67465476D02*
X170484523Y-67465476D01*
X170579761Y-67417857D01*
X170627380Y-67322619D01*
X170627380Y-67227380D01*
X170627380Y-66894047D02*
X169627380Y-66894047D01*
X170627380Y-66465476D02*
X170103571Y-66465476D01*
X170008333Y-66513095D01*
X169960714Y-66608333D01*
X169960714Y-66751190D01*
X170008333Y-66846428D01*
X170055952Y-66894047D01*
X170627380Y-64798809D02*
X170103571Y-64798809D01*
X170008333Y-64846428D01*
X169960714Y-64941666D01*
X169960714Y-65132142D01*
X170008333Y-65227380D01*
X170579761Y-64798809D02*
X170627380Y-64894047D01*
X170627380Y-65132142D01*
X170579761Y-65227380D01*
X170484523Y-65275000D01*
X170389285Y-65275000D01*
X170294047Y-65227380D01*
X170246428Y-65132142D01*
X170246428Y-64894047D01*
X170198809Y-64798809D01*
X170579761Y-63132142D02*
X170627380Y-63227380D01*
X170627380Y-63417857D01*
X170579761Y-63513095D01*
X170532142Y-63560714D01*
X170436904Y-63608333D01*
X170151190Y-63608333D01*
X170055952Y-63560714D01*
X170008333Y-63513095D01*
X169960714Y-63417857D01*
X169960714Y-63227380D01*
X170008333Y-63132142D01*
X169960714Y-62275000D02*
X170627380Y-62275000D01*
X169960714Y-62703571D02*
X170484523Y-62703571D01*
X170579761Y-62655952D01*
X170627380Y-62560714D01*
X170627380Y-62417857D01*
X170579761Y-62322619D01*
X170532142Y-62275000D01*
X170579761Y-61846428D02*
X170627380Y-61751190D01*
X170627380Y-61560714D01*
X170579761Y-61465476D01*
X170484523Y-61417857D01*
X170436904Y-61417857D01*
X170341666Y-61465476D01*
X170294047Y-61560714D01*
X170294047Y-61703571D01*
X170246428Y-61798809D01*
X170151190Y-61846428D01*
X170103571Y-61846428D01*
X170008333Y-61798809D01*
X169960714Y-61703571D01*
X169960714Y-61560714D01*
X170008333Y-61465476D01*
X169960714Y-61132142D02*
X169960714Y-60751190D01*
X169627380Y-60989285D02*
X170484523Y-60989285D01*
X170579761Y-60941666D01*
X170627380Y-60846428D01*
X170627380Y-60751190D01*
X170627380Y-60275000D02*
X170579761Y-60370238D01*
X170532142Y-60417857D01*
X170436904Y-60465476D01*
X170151190Y-60465476D01*
X170055952Y-60417857D01*
X170008333Y-60370238D01*
X169960714Y-60275000D01*
X169960714Y-60132142D01*
X170008333Y-60036904D01*
X170055952Y-59989285D01*
X170151190Y-59941666D01*
X170436904Y-59941666D01*
X170532142Y-59989285D01*
X170579761Y-60036904D01*
X170627380Y-60132142D01*
X170627380Y-60275000D01*
X170627380Y-59513095D02*
X169960714Y-59513095D01*
X170055952Y-59513095D02*
X170008333Y-59465476D01*
X169960714Y-59370238D01*
X169960714Y-59227380D01*
X170008333Y-59132142D01*
X170103571Y-59084523D01*
X170627380Y-59084523D01*
X170103571Y-59084523D02*
X170008333Y-59036904D01*
X169960714Y-58941666D01*
X169960714Y-58798809D01*
X170008333Y-58703571D01*
X170103571Y-58655952D01*
X170627380Y-58655952D01*
X170627380Y-56989285D02*
X169627380Y-56989285D01*
X170579761Y-56989285D02*
X170627380Y-57084523D01*
X170627380Y-57275000D01*
X170579761Y-57370238D01*
X170532142Y-57417857D01*
X170436904Y-57465476D01*
X170151190Y-57465476D01*
X170055952Y-57417857D01*
X170008333Y-57370238D01*
X169960714Y-57275000D01*
X169960714Y-57084523D01*
X170008333Y-56989285D01*
X170579761Y-56132142D02*
X170627380Y-56227380D01*
X170627380Y-56417857D01*
X170579761Y-56513095D01*
X170484523Y-56560714D01*
X170103571Y-56560714D01*
X170008333Y-56513095D01*
X169960714Y-56417857D01*
X169960714Y-56227380D01*
X170008333Y-56132142D01*
X170103571Y-56084523D01*
X170198809Y-56084523D01*
X170294047Y-56560714D01*
X170579761Y-55703571D02*
X170627380Y-55608333D01*
X170627380Y-55417857D01*
X170579761Y-55322619D01*
X170484523Y-55275000D01*
X170436904Y-55275000D01*
X170341666Y-55322619D01*
X170294047Y-55417857D01*
X170294047Y-55560714D01*
X170246428Y-55655952D01*
X170151190Y-55703571D01*
X170103571Y-55703571D01*
X170008333Y-55655952D01*
X169960714Y-55560714D01*
X169960714Y-55417857D01*
X170008333Y-55322619D01*
X170627380Y-54846428D02*
X169960714Y-54846428D01*
X169627380Y-54846428D02*
X169675000Y-54894047D01*
X169722619Y-54846428D01*
X169675000Y-54798809D01*
X169627380Y-54846428D01*
X169722619Y-54846428D01*
X169960714Y-53941666D02*
X170770238Y-53941666D01*
X170865476Y-53989285D01*
X170913095Y-54036904D01*
X170960714Y-54132142D01*
X170960714Y-54275000D01*
X170913095Y-54370238D01*
X170579761Y-53941666D02*
X170627380Y-54036904D01*
X170627380Y-54227380D01*
X170579761Y-54322619D01*
X170532142Y-54370238D01*
X170436904Y-54417857D01*
X170151190Y-54417857D01*
X170055952Y-54370238D01*
X170008333Y-54322619D01*
X169960714Y-54227380D01*
X169960714Y-54036904D01*
X170008333Y-53941666D01*
X169960714Y-53465476D02*
X170627380Y-53465476D01*
X170055952Y-53465476D02*
X170008333Y-53417857D01*
X169960714Y-53322619D01*
X169960714Y-53179761D01*
X170008333Y-53084523D01*
X170103571Y-53036904D01*
X170627380Y-53036904D01*
D12*
X74363095Y-123103571D02*
X74125000Y-122841666D01*
X73886904Y-122317857D01*
X73886904Y-121008333D01*
X74125000Y-120484523D01*
X74363095Y-120222619D01*
X74839285Y-119960714D01*
X75315476Y-119960714D01*
X76029761Y-120222619D01*
X78886904Y-123365476D01*
X78886904Y-119960714D01*
X73886904Y-116555952D02*
X73886904Y-116032142D01*
X74125000Y-115508333D01*
X74363095Y-115246428D01*
X74839285Y-114984523D01*
X75791666Y-114722619D01*
X76982142Y-114722619D01*
X77934523Y-114984523D01*
X78410714Y-115246428D01*
X78648809Y-115508333D01*
X78886904Y-116032142D01*
X78886904Y-116555952D01*
X78648809Y-117079761D01*
X78410714Y-117341666D01*
X77934523Y-117603571D01*
X76982142Y-117865476D01*
X75791666Y-117865476D01*
X74839285Y-117603571D01*
X74363095Y-117341666D01*
X74125000Y-117079761D01*
X73886904Y-116555952D01*
X74363095Y-112627380D02*
X74125000Y-112365476D01*
X73886904Y-111841666D01*
X73886904Y-110532142D01*
X74125000Y-110008333D01*
X74363095Y-109746428D01*
X74839285Y-109484523D01*
X75315476Y-109484523D01*
X76029761Y-109746428D01*
X78886904Y-112889285D01*
X78886904Y-109484523D01*
X74363095Y-107389285D02*
X74125000Y-107127380D01*
X73886904Y-106603571D01*
X73886904Y-105294047D01*
X74125000Y-104770238D01*
X74363095Y-104508333D01*
X74839285Y-104246428D01*
X75315476Y-104246428D01*
X76029761Y-104508333D01*
X78886904Y-107651190D01*
X78886904Y-104246428D01*
D13*
X93052261Y-82278571D02*
X92837976Y-82469047D01*
X92242738Y-82659523D01*
X91861785Y-82659523D01*
X91314166Y-82469047D01*
X90980833Y-82088095D01*
X90837976Y-81707142D01*
X90742738Y-80945238D01*
X90814166Y-80373809D01*
X91099880Y-79611904D01*
X91337976Y-79230952D01*
X91766547Y-78850000D01*
X92361785Y-78659523D01*
X92742738Y-78659523D01*
X93290357Y-78850000D01*
X93457023Y-79040476D01*
X95290357Y-82659523D02*
X94933214Y-82469047D01*
X94766547Y-82278571D01*
X94623690Y-81897619D01*
X94766547Y-80754761D01*
X95004642Y-80373809D01*
X95218928Y-80183333D01*
X95623690Y-79992857D01*
X96195119Y-79992857D01*
X96552261Y-80183333D01*
X96718928Y-80373809D01*
X96861785Y-80754761D01*
X96718928Y-81897619D01*
X96480833Y-82278571D01*
X96266547Y-82469047D01*
X95861785Y-82659523D01*
X95290357Y-82659523D01*
X98671309Y-79992857D02*
X98337976Y-82659523D01*
X98623690Y-80373809D02*
X98837976Y-80183333D01*
X99242738Y-79992857D01*
X99814166Y-79992857D01*
X100171309Y-80183333D01*
X100314166Y-80564285D01*
X100052261Y-82659523D01*
X104957023Y-81516666D02*
X106861785Y-81516666D01*
X104433214Y-82659523D02*
X106266547Y-78659523D01*
X107099880Y-82659523D01*
X108433214Y-82659523D02*
X108766547Y-79992857D01*
X108671309Y-80754761D02*
X108909404Y-80373809D01*
X109123690Y-80183333D01*
X109528452Y-79992857D01*
X109909404Y-79992857D01*
X110671309Y-79992857D02*
X112195119Y-79992857D01*
X111409404Y-78659523D02*
X110980833Y-82088095D01*
X111123690Y-82469047D01*
X111480833Y-82659523D01*
X111861785Y-82659523D01*
X116361785Y-78659523D02*
X116814166Y-82659523D01*
X117933214Y-79802380D01*
X118337976Y-82659523D01*
X119790357Y-78659523D01*
X121385595Y-82659523D02*
X121028452Y-82469047D01*
X120861785Y-82278571D01*
X120718928Y-81897619D01*
X120861785Y-80754761D01*
X121099880Y-80373809D01*
X121314166Y-80183333D01*
X121718928Y-79992857D01*
X122290357Y-79992857D01*
X122647500Y-80183333D01*
X122814166Y-80373809D01*
X122957023Y-80754761D01*
X122814166Y-81897619D01*
X122576071Y-82278571D01*
X122361785Y-82469047D01*
X121957023Y-82659523D01*
X121385595Y-82659523D01*
X124433214Y-82659523D02*
X124766547Y-79992857D01*
X124671309Y-80754761D02*
X124909404Y-80373809D01*
X125123690Y-80183333D01*
X125528452Y-79992857D01*
X125909404Y-79992857D01*
X126909404Y-82659523D02*
X127409404Y-78659523D01*
X127480833Y-81135714D02*
X128433214Y-82659523D01*
X128766547Y-79992857D02*
X127052261Y-81516666D01*
X136576071Y-78469047D02*
X132504642Y-83611904D01*
X142337976Y-82659523D02*
X140433214Y-82659523D01*
X140933214Y-78659523D01*
X144242738Y-82659523D02*
X143885595Y-82469047D01*
X143718928Y-82278571D01*
X143576071Y-81897619D01*
X143718928Y-80754761D01*
X143957023Y-80373809D01*
X144171309Y-80183333D01*
X144576071Y-79992857D01*
X145147500Y-79992857D01*
X145504642Y-80183333D01*
X145671309Y-80373809D01*
X145814166Y-80754761D01*
X145671309Y-81897619D01*
X145433214Y-82278571D01*
X145218928Y-82469047D01*
X144814166Y-82659523D01*
X144242738Y-82659523D01*
X149337976Y-79992857D02*
X148933214Y-83230952D01*
X148695119Y-83611904D01*
X148480833Y-83802380D01*
X148076071Y-83992857D01*
X147504642Y-83992857D01*
X147147500Y-83802380D01*
X149028452Y-82469047D02*
X148623690Y-82659523D01*
X147861785Y-82659523D01*
X147504642Y-82469047D01*
X147337976Y-82278571D01*
X147195119Y-81897619D01*
X147337976Y-80754761D01*
X147576071Y-80373809D01*
X147790357Y-80183333D01*
X148195119Y-79992857D01*
X148957023Y-79992857D01*
X149314166Y-80183333D01*
X151480833Y-82659523D02*
X151123690Y-82469047D01*
X150957023Y-82278571D01*
X150814166Y-81897619D01*
X150957023Y-80754761D01*
X151195119Y-80373809D01*
X151409404Y-80183333D01*
X151814166Y-79992857D01*
X152385595Y-79992857D01*
X152742738Y-80183333D01*
X152909404Y-80373809D01*
X153052261Y-80754761D01*
X152909404Y-81897619D01*
X152671309Y-82278571D01*
X152457023Y-82469047D01*
X152052261Y-82659523D01*
X151480833Y-82659523D01*
D11*
X80200000Y-110200000D02*
X80150000Y-56550000D01*
X164475000Y-110275000D02*
X80175000Y-110250000D01*
X164450000Y-56475000D02*
X164450000Y-110175000D01*
X80150000Y-56525000D02*
X164450000Y-56475000D01*
D13*
X113275000Y-139941666D02*
X113275000Y-132941666D01*
X115941666Y-132941666D01*
X116608333Y-133275000D01*
X116941666Y-133608333D01*
X117275000Y-134275000D01*
X117275000Y-135275000D01*
X116941666Y-135941666D01*
X116608333Y-136275000D01*
X115941666Y-136608333D01*
X113275000Y-136608333D01*
X123275000Y-139941666D02*
X123275000Y-136275000D01*
X122941666Y-135608333D01*
X122275000Y-135275000D01*
X120941666Y-135275000D01*
X120275000Y-135608333D01*
X123275000Y-139608333D02*
X122608333Y-139941666D01*
X120941666Y-139941666D01*
X120275000Y-139608333D01*
X119941666Y-138941666D01*
X119941666Y-138275000D01*
X120275000Y-137608333D01*
X120941666Y-137275000D01*
X122608333Y-137275000D01*
X123275000Y-136941666D01*
X126608333Y-139941666D02*
X126608333Y-135275000D01*
X126608333Y-136608333D02*
X126941666Y-135941666D01*
X127275000Y-135608333D01*
X127941666Y-135275000D01*
X128608333Y-135275000D01*
X129941666Y-135275000D02*
X132608333Y-135275000D01*
X130941666Y-132941666D02*
X130941666Y-138941666D01*
X131275000Y-139608333D01*
X131941666Y-139941666D01*
X132608333Y-139941666D01*
X134941666Y-139941666D02*
X134941666Y-135275000D01*
X134941666Y-132941666D02*
X134608333Y-133275000D01*
X134941666Y-133608333D01*
X135275000Y-133275000D01*
X134941666Y-132941666D01*
X134941666Y-133608333D01*
X141275000Y-139608333D02*
X140608333Y-139941666D01*
X139275000Y-139941666D01*
X138608333Y-139608333D01*
X138275000Y-139275000D01*
X137941666Y-138608333D01*
X137941666Y-136608333D01*
X138275000Y-135941666D01*
X138608333Y-135608333D01*
X139275000Y-135275000D01*
X140608333Y-135275000D01*
X141275000Y-135608333D01*
X144275000Y-139941666D02*
X144275000Y-135275000D01*
X144275000Y-132941666D02*
X143941666Y-133275000D01*
X144275000Y-133608333D01*
X144608333Y-133275000D01*
X144275000Y-132941666D01*
X144275000Y-133608333D01*
X147608333Y-135275000D02*
X147608333Y-142275000D01*
X147608333Y-135608333D02*
X148275000Y-135275000D01*
X149608333Y-135275000D01*
X150275000Y-135608333D01*
X150608333Y-135941666D01*
X150941666Y-136608333D01*
X150941666Y-138608333D01*
X150608333Y-139275000D01*
X150275000Y-139608333D01*
X149608333Y-139941666D01*
X148275000Y-139941666D01*
X147608333Y-139608333D01*
X156941666Y-139941666D02*
X156941666Y-136275000D01*
X156608333Y-135608333D01*
X155941666Y-135275000D01*
X154608333Y-135275000D01*
X153941666Y-135608333D01*
X156941666Y-139608333D02*
X156275000Y-139941666D01*
X154608333Y-139941666D01*
X153941666Y-139608333D01*
X153608333Y-138941666D01*
X153608333Y-138275000D01*
X153941666Y-137608333D01*
X154608333Y-137275000D01*
X156275000Y-137275000D01*
X156941666Y-136941666D01*
X160275000Y-135275000D02*
X160275000Y-139941666D01*
X160275000Y-135941666D02*
X160608333Y-135608333D01*
X161275000Y-135275000D01*
X162275000Y-135275000D01*
X162941666Y-135608333D01*
X163275000Y-136275000D01*
X163275000Y-139941666D01*
X165608333Y-135275000D02*
X168275000Y-135275000D01*
X166608333Y-132941666D02*
X166608333Y-138941666D01*
X166941666Y-139608333D01*
X167608333Y-139941666D01*
X168275000Y-139941666D01*
D10*
%TO.C,J1*%
X155696326Y-47228960D02*
X155696326Y-47943246D01*
X155648707Y-48086103D01*
X155553469Y-48181341D01*
X155410612Y-48228960D01*
X155315374Y-48228960D01*
X156696326Y-48228960D02*
X156124898Y-48228960D01*
X156410612Y-48228960D02*
X156410612Y-47228960D01*
X156315374Y-47371818D01*
X156220136Y-47467056D01*
X156124898Y-47514675D01*
%TO.C,D7*%
X163961666Y-60369333D02*
X163961666Y-58969333D01*
X164295000Y-58969333D01*
X164495000Y-59036000D01*
X164628333Y-59169333D01*
X164695000Y-59302666D01*
X164761666Y-59569333D01*
X164761666Y-59769333D01*
X164695000Y-60036000D01*
X164628333Y-60169333D01*
X164495000Y-60302666D01*
X164295000Y-60369333D01*
X163961666Y-60369333D01*
X165228333Y-58969333D02*
X166161666Y-58969333D01*
X165561666Y-60369333D01*
%TO.C,TP5*%
X102561895Y-132902380D02*
X103133323Y-132902380D01*
X102847609Y-133902380D02*
X102847609Y-132902380D01*
X103466657Y-133902380D02*
X103466657Y-132902380D01*
X103847609Y-132902380D01*
X103942847Y-132950000D01*
X103990466Y-132997619D01*
X104038085Y-133092857D01*
X104038085Y-133235714D01*
X103990466Y-133330952D01*
X103942847Y-133378571D01*
X103847609Y-133426190D01*
X103466657Y-133426190D01*
X104942847Y-132902380D02*
X104466657Y-132902380D01*
X104419038Y-133378571D01*
X104466657Y-133330952D01*
X104561895Y-133283333D01*
X104799990Y-133283333D01*
X104895228Y-133330952D01*
X104942847Y-133378571D01*
X104990466Y-133473809D01*
X104990466Y-133711904D01*
X104942847Y-133807142D01*
X104895228Y-133854761D01*
X104799990Y-133902380D01*
X104561895Y-133902380D01*
X104466657Y-133854761D01*
X104419038Y-133807142D01*
%TO.C,TP4*%
X81038095Y-132777380D02*
X81609523Y-132777380D01*
X81323809Y-133777380D02*
X81323809Y-132777380D01*
X81942857Y-133777380D02*
X81942857Y-132777380D01*
X82323809Y-132777380D01*
X82419047Y-132825000D01*
X82466666Y-132872619D01*
X82514285Y-132967857D01*
X82514285Y-133110714D01*
X82466666Y-133205952D01*
X82419047Y-133253571D01*
X82323809Y-133301190D01*
X81942857Y-133301190D01*
X83371428Y-133110714D02*
X83371428Y-133777380D01*
X83133333Y-132729761D02*
X82895238Y-133444047D01*
X83514285Y-133444047D01*
%TO.C,TP3*%
X91738095Y-143427380D02*
X92309523Y-143427380D01*
X92023809Y-144427380D02*
X92023809Y-143427380D01*
X92642857Y-144427380D02*
X92642857Y-143427380D01*
X93023809Y-143427380D01*
X93119047Y-143475000D01*
X93166666Y-143522619D01*
X93214285Y-143617857D01*
X93214285Y-143760714D01*
X93166666Y-143855952D01*
X93119047Y-143903571D01*
X93023809Y-143951190D01*
X92642857Y-143951190D01*
X93547619Y-143427380D02*
X94166666Y-143427380D01*
X93833333Y-143808333D01*
X93976190Y-143808333D01*
X94071428Y-143855952D01*
X94119047Y-143903571D01*
X94166666Y-143998809D01*
X94166666Y-144236904D01*
X94119047Y-144332142D01*
X94071428Y-144379761D01*
X93976190Y-144427380D01*
X93690476Y-144427380D01*
X93595238Y-144379761D01*
X93547619Y-144332142D01*
%TO.C,TP2*%
X92063095Y-113527380D02*
X92634523Y-113527380D01*
X92348809Y-114527380D02*
X92348809Y-113527380D01*
X92967857Y-114527380D02*
X92967857Y-113527380D01*
X93348809Y-113527380D01*
X93444047Y-113575000D01*
X93491666Y-113622619D01*
X93539285Y-113717857D01*
X93539285Y-113860714D01*
X93491666Y-113955952D01*
X93444047Y-114003571D01*
X93348809Y-114051190D01*
X92967857Y-114051190D01*
X93920238Y-113622619D02*
X93967857Y-113575000D01*
X94063095Y-113527380D01*
X94301190Y-113527380D01*
X94396428Y-113575000D01*
X94444047Y-113622619D01*
X94491666Y-113717857D01*
X94491666Y-113813095D01*
X94444047Y-113955952D01*
X93872619Y-114527380D01*
X94491666Y-114527380D01*
%TO.C,TP1*%
X91887295Y-128378580D02*
X92458723Y-128378580D01*
X92173009Y-129378580D02*
X92173009Y-128378580D01*
X92792057Y-129378580D02*
X92792057Y-128378580D01*
X93173009Y-128378580D01*
X93268247Y-128426200D01*
X93315866Y-128473819D01*
X93363485Y-128569057D01*
X93363485Y-128711914D01*
X93315866Y-128807152D01*
X93268247Y-128854771D01*
X93173009Y-128902390D01*
X92792057Y-128902390D01*
X94315866Y-129378580D02*
X93744438Y-129378580D01*
X94030152Y-129378580D02*
X94030152Y-128378580D01*
X93934914Y-128521438D01*
X93839676Y-128616676D01*
X93744438Y-128664295D01*
D11*
%TO.C,J1*%
X154699660Y-53976580D02*
X157359660Y-53976580D01*
X154699660Y-51376580D02*
X154699660Y-53976580D01*
X157359660Y-51376580D02*
X157359660Y-53976580D01*
X154699660Y-51376580D02*
X157359660Y-51376580D01*
X154699660Y-50106580D02*
X154699660Y-48776580D01*
X154699660Y-48776580D02*
X156029660Y-48776580D01*
D14*
%TO.C,D7*%
X162050000Y-61125000D02*
X167050000Y-61125000D01*
X167050000Y-66125000D02*
X162050000Y-66125000D01*
D15*
X161000000Y-62025000D02*
G75*
G03*
X161000000Y-62025000I-100000J0D01*
G01*
%TD*%
M02*
